<?xml version="1.0" encoding="UTF-8"?>
<svg width="12px" height="12px" viewBox="0 0 12 12" version="1.1" xmlns="http://www.w3.org/2000/svg" xmlns:xlink="http://www.w3.org/1999/xlink">
    <!-- Generator: Sketch 40.3 (33839) - http://www.bohemiancoding.com/sketch -->
    <title>liemingcheng</title>
    <desc>Created with Sketch.</desc>
    <defs></defs>
    <g id="Page-1" stroke="none" stroke-width="1" fill="none" fill-rule="evenodd">
        <g id="2-1-1-1-首营-产品资质-产品资质查询" transform="translate(-1137.000000, -337.000000)" fill="#1FB5AC">
            <g id="Group" transform="translate(214.000000, 66.000000)">
                <g id="4个功能键" transform="translate(0.000000, 260.000000)">
                    <g id="列名称" transform="translate(923.000000, 11.000000)">
                        <path d="M12,3.6 L12,10.1982 C12,11.1936 11.1942,12 10.2036,12 L1.7964,12 C0.804,12 0,11.1948 0,10.1982 L0,3.6 L12,3.6 Z M1.7964,10.8 L10.2036,10.8 C10.5312,10.8 10.8,10.5306 10.8,10.1982 L10.8,4.8 L1.2,4.8 L1.2,10.1982 C1.2,10.5324 1.467,10.8 1.7964,10.8 Z M12.0006,2.3982 L12.0006,2.3904 C11.9772,1.7394 11.3862,1.2 10.7232,1.2 L4.8,1.2 L4.4682,0.537 C4.3212,0.243 3.9306,0 3.5982,0 L1.2036,0 C0.5322,0 0,0.537 0,1.2 L0,2.4 L1.2006,2.4 L1.2018,1.2 L3.5994,1.2 L4.1994,2.3994 L12.0006,2.3982 Z" id="liemingcheng"></path>
                    </g>
                </g>
            </g>
        </g>
    </g>
</svg>