<?xml version="1.0" encoding="UTF-8"?>
<svg width="12px" height="12px" viewBox="0 0 12 12" version="1.1" xmlns="http://www.w3.org/2000/svg" xmlns:xlink="http://www.w3.org/1999/xlink">
    <defs></defs>
    <g id="Page-1" stroke="none" stroke-width="1" fill="none" fill-rule="evenodd">
        <g id="Custom-Preset" transform="translate(-1091.000000, -285.000000)" fill="#FFFFFF">
            <g id="列名称BG-滑过" transform="translate(1086.000000, 274.000000)">
                <path d="M17,15 L17,21.198 C17,22.194 16.194,23 15.204,23 L6.796,23 C5.804,23 5,22.195 5,21.198 L5,15 L17,15 Z M6.796,22 L15.204,22 C15.531,22 16,21.531 16,21.198 L16,16 L6,16 L6,21.198 C6,21.532 6.467,22 6.796,22 L6.796,22 Z M16,12.996 L16,14 L17,14 L17,12.996 C17,12.353 16.663,12 16,12 L10.306,12 L8.988,11 L6.204,11 C5.532,11 5,11.537 5,12.2 L5,14 L6,14 L6.001,12 L8.694,12 L10,13 L16,12.996 Z" id="列名称icon-滑过"></path>
            </g>
        </g>
    </g>
</svg>