<?xml version="1.0" encoding="UTF-8"?>
<svg width="14px" height="14px" viewBox="0 0 14 14" version="1.1" xmlns="http://www.w3.org/2000/svg" xmlns:xlink="http://www.w3.org/1999/xlink">
    <!-- Generator: Sketch 40.3 (33839) - http://www.bohemiancoding.com/sketch -->
    <title>yujing-1</title>
    <desc>Created with Sketch.</desc>
    <defs></defs>
    <g id="Page-1" stroke="none" stroke-width="1" fill="none" fill-rule="evenodd">
        <g id="2-1-1-1-首营-产品资质-产品资质查询" transform="translate(-1082.000000, -18.000000)" fill="#B1B1B1">
            <g id="header">
                <g id="yujing" transform="translate(1082.000000, 16.000000)">
                    <path d="M7.00038887,16 C7.85978557,16 8.55585801,15.3735 8.55585801,14.6 L5.44491973,14.6 C5.44491973,15.3735 6.14099217,16 7.00038887,16 L7.00038887,16 Z M7.00038887,2 C9.67657352,2 12.3527582,4.4703 12.4445309,6.6879 L12.4445309,9.2331 C12.4445309,9.2331 14,10.05 14,11.1035 C14,12.5336 12.9578357,13.2 11.6722404,13.2 L2.32775957,13.2 C1.05227487,13.2 0,12.5 0,11.1035 L0,10.7472 C0,10.3608 0.29942781,9.8932 0.66885173,9.6993 L1.55546914,9.2338 L1.55546914,6.6886 C1.64724182,4.471 4.32342648,2.0007 6.99961113,2.0007 L7.00038887,2 Z M7.00038887,3.4 C5.22948725,3.4 3.17393478,5.2123 3.11171602,6.6879 L3.11171602,10.0374 L2.34020332,10.4427 L1.45358591,10.9082 C1.56169102,10.8515 1.55624688,10.8592 1.55624688,10.7465 L1.55624688,11.1028 C1.55624688,11.6131 1.78101217,11.7993 2.3285373,11.7993 L11.6730182,11.7993 C12.2446531,11.7993 12.4453086,11.6348 12.4453086,11.1028 C12.4453086,11.1014 12.3558691,10.9642 12.1458808,10.7829 C11.9561135,10.6191 11.758569,10.4931 11.6613521,10.442 L10.8898395,10.0367 L10.8898395,9.2324 L10.8906172,6.739 C10.8276207,5.2109 8.77206822,3.3993 7.0011666,3.3993 L7.00038887,3.4 Z" id="yujing-1"></path>
                </g>
            </g>
        </g>
    </g>
</svg>