<?xml version="1.0" encoding="UTF-8"?>
<svg width="12px" height="12px" viewBox="0 0 12 12" version="1.1" xmlns="http://www.w3.org/2000/svg" xmlns:xlink="http://www.w3.org/1999/xlink">
    <!-- Generator: Sketch 40.3 (33839) - http://www.bohemiancoding.com/sketch -->
    <title>daochu</title>
    <desc>Created with Sketch.</desc>
    <defs></defs>
    <g id="Page-1" stroke="none" stroke-width="1" fill="none" fill-rule="evenodd">
        <g id="2-1-1-1-首营-产品资质-产品资质查询" transform="translate(-1284.000000, -337.000000)" fill="#1FB5AC">
            <g id="Group" transform="translate(214.000000, 66.000000)">
                <g id="4个功能键" transform="translate(0.000000, 260.000000)">
                    <g id="导出" transform="translate(1070.000000, 11.000000)">
                        <path d="M6.59967002,5.64811759 L6.59967002,0.601169942 C6.59967002,0.272986351 6.33088346,0 5.99970001,0 C5.66611669,0 5.39973001,0.269386531 5.39973001,0.601169942 L5.39973001,5.64811759 L4.72296385,4.97135143 C4.49377531,4.74216289 4.11279436,4.74096295 3.87820609,4.97555122 C3.64241788,5.21133943 3.64241788,5.58812059 3.8740063,5.82030898 L5.57852107,7.52482376 C5.69251537,7.63881806 5.84370781,7.69641518 5.99610019,7.69641518 C6.15269237,7.69821509 6.30388481,7.640018 6.41907905,7.52482376 L8.12359382,5.82030898 C8.35278236,5.59112044 8.3539823,5.21013949 8.11939403,4.97555122 C7.88360582,4.73976301 7.50682466,4.73976301 7.27463627,4.97135143 L6.59787011,5.64811759 L6.59967002,5.64811759 Z M4.19979001,0.599970001 L1.79571021,0.599970001 C0.811759412,0.599970001 0,1.4039298 0,2.39568022 L0,10.2042898 C0,11.1882406 0.803959802,12 1.79571021,12 L10.2042898,12 C11.1882406,12 12,11.1960402 12,10.2042898 L12,2.39568022 C12,1.41172941 11.1960402,0.599970001 10.2042898,0.599970001 L7.80020999,0.599970001 L7.80020999,1.79991 L10.2042898,1.79991 C10.5294735,1.79991 10.80006,2.07109645 10.80006,2.39568022 L10.80006,10.2042898 C10.80006,10.5294735 10.5288736,10.80006 10.2042898,10.80006 L1.79571021,10.80006 C1.47052647,10.80006 1.19994,10.5288736 1.19994,10.2042898 L1.19994,2.39568022 C1.19994,2.07049648 1.47112644,1.79991 1.79571021,1.79991 L4.19979001,1.79991 L4.19979001,0.599970001 L4.19979001,0.599970001 Z" id="daochu"></path>
                    </g>
                </g>
            </g>
        </g>
    </g>
</svg>