<?xml version="1.0" encoding="UTF-8"?>
<svg width="12px" height="10px" viewBox="0 0 12 10" version="1.1" xmlns="http://www.w3.org/2000/svg" xmlns:xlink="http://www.w3.org/1999/xlink">
    <!-- Generator: Sketch 40.3 (33839) - http://www.bohemiancoding.com/sketch -->
    <title>zhediecaidan-1</title>
    <desc>Created with Sketch.</desc>
    <defs></defs>
    <g id="Page-1" stroke="none" stroke-width="1" fill="none" fill-rule="evenodd">
        <g id="2-1-1-1-首营-产品资质-产品资质查询" transform="translate(-742.000000, -187.000000)" fill="#1FB5AC">
            <g id="Group" transform="translate(214.000000, 66.000000)">
                <g id="折叠菜单" transform="translate(0.000000, 108.000000)">
                    <g transform="translate(528.000000, 11.000000)" id="zhediecaidan-1">
                        <g transform="translate(0.000000, 2.000000)">
                            <path d="M9.16342857,9.3064892 L11.3901849,5.58786508 C11.5515294,5.31849133 11.3578487,4.97576224 11.0443025,4.97576224 L6.59078992,4.97576224 C6.2772437,4.97576224 6.08356303,5.31849133 6.24490756,5.58786508 L8.47166387,9.3064892 C8.62836975,9.56811651 9.00678992,9.56811651 9.16342857,9.3064892" id="Fill-10" transform="translate(8.817546, 7.239236) rotate(-180.000000) translate(-8.817546, -7.239236) "></path>
                            <path d="M3.91891765,3.99405355 L0.979757983,3.99405355 C0.438648739,3.99405355 -6.72268925e-06,4.43357937 -6.72268925e-06,4.97576224 C-6.72268925e-06,5.51733887 0.438648739,5.95740356 0.979757983,5.95740356 L3.91891765,5.95740356 C4.45995966,5.95740356 4.89868235,5.51733887 4.89868235,4.97576224 C4.89861513,4.43357937 4.45995966,3.99405355 3.91891765,3.99405355" id="Fill-4"></path>
                            <path d="M3.91891765,7.92074683 L0.979757983,7.92074683 C0.438648739,7.92074683 -6.72268925e-06,8.36081152 -6.72268925e-06,8.90245552 C-6.72268925e-06,9.44403215 0.438648739,9.88409684 0.979757983,9.88409684 L3.94574118,9.88503988 C4.49061513,9.88503988 4.89915294,9.44403215 4.89868235,8.90245552 C4.89821176,8.36081152 4.45995966,7.92074683 3.91891765,7.92074683" id="Fill-7"></path>
                            <path d="M0.979731092,2.03071702 L10.777042,2.03071702 C11.3185546,2.03071702 11.7567395,1.59119121 11.7567395,1.04900834 C11.7567395,0.506892824 11.3185546,0.0673670135 10.777042,0.0673670135 L0.979731092,0.0673670135 C0.438689076,0.0673670135 -3.36134453e-05,0.506892824 -3.36134453e-05,1.04900834 C-3.36134453e-05,1.59119121 0.438689076,2.03071702 0.979731092,2.03071702" id="Fill-1"></path>
                        </g>
                    </g>
                </g>
            </g>
        </g>
    </g>
</svg>