<?xml version="1.0" encoding="UTF-8"?>
<svg width="123px" height="24px" viewBox="0 0 123 24" version="1.1" xmlns="http://www.w3.org/2000/svg" xmlns:xlink="http://www.w3.org/1999/xlink">
    <!-- Generator: Sketch 40.3 (33839) - http://www.bohemiancoding.com/sketch -->
    <title>Logo</title>
    <desc>Created with Sketch.</desc>
    <defs>
        <polygon id="path-1" points="0.000333333333 23.3333333 122.763 23.3333333 122.763 0.164666667 0.000333333333 0.164666667"></polygon>
        <polygon id="path-3" points="0 23.8355333 122.763333 23.8355333 122.763333 0.666866667 0 0.666866667"></polygon>
    </defs>
    <g id="Page-1" stroke="none" stroke-width="1" fill="none" fill-rule="evenodd">
        <g id="2-1-1-1-首营-产品资质-产品资质查询" transform="translate(-30.000000, -13.000000)">
            <g id="header">
                <g id="Logo" transform="translate(30.000000, 13.000000)">
                    <g id="Group-3" transform="translate(0.000000, 0.502200)">
                        <mask id="mask-2" fill="white">
                            <use xlink:href="#path-1"></use>
                        </mask>
                        <g id="Clip-2"></g>
                        <path d="M19.7996667,16.0976667 C19.7096667,16.309 19.5036667,16.4363333 19.2876667,16.4363333 C19.215,16.4363333 19.1416667,16.4223333 19.0716667,16.3916667 C16.753,15.4096667 15.255,13.151 15.255,10.639 C15.255,7.45633333 17.637,4.789 20.7963333,4.43166667 C21.099,4.39833333 21.3763333,4.61766667 21.411,4.92233333 C21.4456667,5.22766667 21.2263333,5.50233333 20.921,5.537 C18.325,5.82966667 16.3663333,8.023 16.3663333,10.639 C16.3663333,12.7036667 17.5983333,14.561 19.505,15.3696667 C19.787,15.489 19.919,15.8143333 19.7996667,16.0976667 L19.7996667,16.0976667 Z M24.2583333,9.70633333 C24.357,9.99633333 24.201,10.3123333 23.911,10.411 C23.6203333,10.5096667 23.3043333,10.3543333 23.2056667,10.0623333 C22.9576667,9.32966667 22.2716667,8.83833333 21.5003333,8.83833333 C20.5076667,8.83833333 19.7003333,9.64566667 19.7003333,10.639 C19.7003333,11.6316667 20.5076667,12.439 21.5003333,12.439 C22.225,12.439 22.8756667,12.007 23.159,11.3376667 C23.2783333,11.0543333 23.6076667,10.9216667 23.8876667,11.0436667 C24.1703333,11.163 24.3016667,11.4883333 24.1823333,11.7716667 C23.7243333,12.853 22.6716667,13.5503333 21.5003333,13.5503333 C19.895,13.5503333 18.589,12.2436667 18.589,10.639 C18.589,9.03366667 19.895,7.727 21.5003333,7.727 C22.749,7.727 23.857,8.52233333 24.2583333,9.70633333 L24.2583333,9.70633333 Z M21.9083333,4.93433333 C21.9603333,4.633 22.251,4.43166667 22.5503333,4.481 C22.777,4.51966667 23.001,4.571 23.219,4.633 C23.5143333,4.71633333 23.6863333,5.02366667 23.6023333,5.31833333 C23.5336667,5.56366667 23.3103333,5.72366667 23.0683333,5.72366667 C23.0183333,5.72366667 22.9676667,5.717 22.917,5.703 C22.7356667,5.65166667 22.5503333,5.60966667 22.3616667,5.577 C22.059,5.525 21.8563333,5.237 21.9083333,4.93433333 L21.9083333,4.93433333 Z M27.6843333,9.75766667 C27.727,10.061 27.5163333,10.3423333 27.2123333,10.3856667 C27.1856667,10.389 27.1596667,10.391 27.1336667,10.391 C26.861,10.391 26.6236667,10.1916667 26.5836667,9.91366667 C26.357,8.31633333 25.369,6.899 23.9416667,6.123 C23.6716667,5.97633333 23.5723333,5.639 23.7183333,5.36833333 C23.865,5.10033333 24.2036667,5.00033333 24.4723333,5.14633333 C26.2076667,6.089 27.4083333,7.81366667 27.6843333,9.75766667 L27.6843333,9.75766667 Z M27.619,11.8956667 C27.0263333,14.787 24.453,16.8843333 21.5003333,16.8843333 C21.263,16.8843333 21.029,16.8703333 20.799,16.8456667 C20.4943333,16.813 20.2736667,16.5383333 20.3063333,16.233 C20.3396667,15.9283333 20.619,15.7036667 20.9183333,15.7403333 C21.1096667,15.761 21.303,15.773 21.5003333,15.773 C23.9276667,15.773 26.043,14.049 26.5303333,11.6716667 C26.5916667,11.371 26.881,11.1783333 27.1863333,11.239 C27.487,11.301 27.6803333,11.595 27.619,11.8956667 L27.619,11.8956667 Z M24.9676667,10.639 C24.9676667,9.78033333 24.6516667,8.95633333 24.0776667,8.31966667 C23.8723333,8.09033333 23.8903333,7.73966667 24.1183333,7.53366667 C24.3463333,7.32766667 24.6976667,7.347 24.903,7.575 C25.661,8.417 26.079,9.50566667 26.079,10.639 C26.079,12.1763333 25.3136667,13.6023333 24.0303333,14.4543333 C23.9356667,14.5176667 23.829,14.5476667 23.7236667,14.5476667 C23.543,14.5476667 23.367,14.461 23.2603333,14.2996667 C23.0903333,14.0443333 23.1596667,13.699 23.415,13.5296667 C24.3876667,12.8843333 24.9676667,11.803 24.9676667,10.639 L24.9676667,10.639 Z M22.0096667,14.0683333 C22.3123333,14.029 22.5956667,14.2343333 22.6396667,14.5383333 C22.6843333,14.8423333 22.4743333,15.1243333 22.1703333,15.169 C21.9516667,15.2003333 21.7276667,15.2176667 21.5003333,15.2176667 C19.369,15.2176667 17.489,13.709 17.0296667,11.6296667 C16.963,11.3303333 17.153,11.0336667 17.4523333,10.9676667 C17.751,10.9023333 18.0483333,11.091 18.115,11.391 C18.4623333,12.9643333 19.8863333,14.1063333 21.5003333,14.1063333 C21.6736667,14.1063333 21.843,14.093 22.0096667,14.0683333 L22.0096667,14.0683333 Z M21.5003333,6.05966667 C22.117,6.05966667 22.7163333,6.18033333 23.2823333,6.419 C23.565,6.53833333 23.6976667,6.86433333 23.5783333,7.147 C23.459,7.43033333 23.1323333,7.56166667 22.8503333,7.44366667 C22.4223333,7.26233333 21.9683333,7.171 21.5003333,7.171 C19.8596667,7.171 18.4316667,8.33566667 18.1036667,9.93966667 C18.0496667,10.2023333 17.8176667,10.3836667 17.5596667,10.3836667 C17.523,10.3836667 17.485,10.3803333 17.4476667,10.373 C17.147,10.311 16.953,10.017 17.015,9.71633333 C17.4483333,7.59766667 19.3343333,6.05966667 21.5003333,6.05966667 L21.5003333,6.05966667 Z M10.8503333,10.4043333 L14.9756667,11.107 C14.547,12.9996667 13.725,14.4296667 12.5096667,15.3963333 C11.2936667,16.3623333 9.66433333,16.8456667 7.62233333,16.8456667 C5.30033333,16.8456667 3.44966667,16.1136667 2.07033333,14.649 C0.689666667,13.1836667 0.000333333333,11.1563333 0.000333333333,8.56566667 C0.000333333333,5.94566667 0.692333333,3.90566667 2.07766667,2.44566667 C3.46233333,0.986333333 5.33566667,0.256333333 7.697,0.256333333 C9.62966667,0.256333333 11.1663333,0.672333333 12.3076667,1.50433333 C13.4483333,2.33633333 14.2676667,3.60366667 14.7663333,5.30766667 L10.6263333,6.055 C10.4863333,5.22833333 10.1703333,4.605 9.677,4.187 C9.18366667,3.76833333 8.54366667,3.559 7.757,3.559 C6.71033333,3.559 5.87566667,3.92033333 5.253,4.643 C4.63033333,5.365 4.319,6.57366667 4.319,8.267 C4.319,10.1503333 4.63566667,11.4803333 5.26833333,12.2576667 C5.901,13.0343333 6.75033333,13.423 7.81633333,13.423 C8.61366667,13.423 9.26633333,13.1963333 9.77433333,12.743 C10.2823333,12.2896667 10.641,11.5103333 10.8503333,10.4043333 L10.8503333,10.4043333 Z M101.202333,9.63566667 C101.195,8.775 101.415667,8.09433333 101.864333,7.593 C102.313667,7.09233333 102.881667,6.841 103.570333,6.841 C104.213667,6.841 104.759667,7.079 105.208333,7.55366667 C105.657667,8.029 105.893,8.723 105.915667,9.63566667 L101.202333,9.63566667 Z M107.576333,6.18433333 C106.551,5.01433333 105.152333,4.42833333 103.379667,4.42833333 C101.801,4.42833333 100.495667,4.98766667 99.463,6.10633333 C98.431,7.22433333 97.9143333,8.77166667 97.9143333,10.7463333 C97.9143333,12.3996667 98.307,13.769 99.093,14.8536667 C100.087667,16.2076667 101.621,16.8843333 103.693667,16.8843333 C105.002333,16.8843333 106.093,16.5836667 106.965,15.9816667 C107.836333,15.379 108.474333,14.5023333 108.878333,13.3496667 L105.735667,12.8223333 C105.563667,13.421 105.309667,13.855 104.973,14.1243333 C104.636333,14.3936667 104.221,14.5283333 103.727,14.5283333 C103.001667,14.5283333 102.395667,14.2683333 101.909667,13.7483333 C101.423,13.2283333 101.169,12.501 101.146333,11.5656667 L109.046333,11.5656667 C109.091,9.14966667 108.601,7.35566667 107.576333,6.18433333 L107.576333,6.18433333 Z M94.883,12.0483333 L97.9803333,12.5756667 C97.6583333,13.997 97.0416667,15.0703333 96.129,15.7963333 C95.2156667,16.5216667 93.993,16.8843333 92.4596667,16.8843333 C90.7163333,16.8843333 89.3263333,16.335 88.2903333,15.235 C87.2543333,14.135 86.7363333,12.613 86.7363333,10.6676667 C86.7363333,8.70033333 87.2563333,7.16833333 88.2963333,6.07233333 C89.3356667,4.977 90.7423333,4.42833333 92.5156667,4.42833333 C93.967,4.42833333 95.1203333,4.741 95.977,5.36566667 C96.8336667,5.99033333 97.449,6.94233333 97.823,8.22166667 L94.715,8.78233333 C94.6096667,8.16166667 94.3723333,7.69433333 94.0023333,7.37966667 C93.6323333,7.06566667 93.151,6.90833333 92.5603333,6.90833333 C91.775,6.90833333 91.1483333,7.17966667 90.681,7.72233333 C90.213,8.26433333 89.9796667,9.17166667 89.9796667,10.443 C89.9796667,11.8576667 90.217,12.8563333 90.6916667,13.4396667 C91.167,14.023 91.805,14.315 92.605,14.315 C93.2036667,14.315 93.6936667,14.145 94.0756667,13.8043333 C94.457,13.4643333 94.7263333,12.8783333 94.883,12.0483333 L94.883,12.0483333 Z M86.3583333,7.08833333 C86.4736667,7.58166667 86.5316667,8.289 86.5316667,9.209 L86.5316667,16.615 L83.379,16.615 L83.379,10.533 C83.379,9.24633333 83.3116667,8.41433333 83.177,8.03633333 C83.0423333,7.65833333 82.823,7.365 82.5203333,7.155 C82.217,6.94566667 81.8523333,6.841 81.4263333,6.841 C80.8796667,6.841 80.3896667,6.991 79.9563333,7.29033333 C79.5223333,7.589 79.225,7.98566667 79.0636667,8.47966667 C78.903,8.973 78.823,9.88633333 78.823,11.2176667 L78.823,16.615 L75.6696667,16.615 L75.6696667,4.69833333 L78.5983333,4.69833333 L78.5983333,6.44833333 C79.6383333,5.10166667 80.947,4.42833333 82.5256667,4.42833333 C83.2216667,4.42833333 83.8576667,4.55366667 84.4336667,4.80433333 C85.0096667,5.055 85.445,5.375 85.741,5.76366667 C86.0363333,6.153 86.2416667,6.59433333 86.3583333,7.08833333 L86.3583333,7.08833333 Z M71.7843333,11.5203333 C71.7843333,12.2763333 71.743,12.789 71.661,13.0583333 C71.541,13.4696667 71.291,13.8176667 70.909,14.1016667 C70.393,14.4756667 69.8503333,14.663 69.2823333,14.663 C68.773,14.663 68.3543333,14.5023333 68.025,14.1803333 C67.6956667,13.8583333 67.5316667,13.477 67.5316667,13.0356667 C67.5316667,12.587 67.737,12.2163333 68.149,11.925 C68.4183333,11.745 68.9903333,11.5616667 69.8656667,11.375 C70.741,11.1876667 71.3803333,11.027 71.7843333,10.8923333 L71.7843333,11.5203333 Z M74.8483333,12.699 L74.8816667,9.01833333 C74.8816667,7.649 74.7416667,6.70833333 74.461,6.19566667 C74.1803333,5.68366667 73.6956667,5.261 73.0076667,4.92833333 C72.319,4.595 71.2716667,4.42833333 69.8656667,4.42833333 C68.317,4.42833333 67.1496667,4.70566667 66.3643333,5.259 C65.579,5.813 65.025,6.66566667 64.7036667,7.81766667 L67.565,8.33366667 C67.7596667,7.78033333 68.0143333,7.393 68.3283333,7.17233333 C68.6423333,6.95166667 69.0803333,6.841 69.641,6.841 C70.4716667,6.841 71.0363333,6.97033333 71.3356667,7.22833333 C71.635,7.48633333 71.7843333,7.919 71.7843333,8.525 L71.7843333,8.839 C71.2156667,9.07833333 70.195,9.33633333 68.721,9.613 C67.6283333,9.82233333 66.7923333,10.0676667 66.213,10.3483333 C65.633,10.6283333 65.1823333,11.0323333 64.861,11.5603333 C64.539,12.0876667 64.3783333,12.6876667 64.3783333,13.361 C64.3783333,14.3783333 64.7316667,15.2203333 65.439,15.8856667 C66.1456667,16.5516667 67.1123333,16.8843333 68.3396667,16.8843333 C69.035,16.8843333 69.6896667,16.7536667 70.303,16.4916667 C70.9163333,16.2303333 71.493,15.8376667 72.0316667,15.3136667 C72.0536667,15.3736667 72.091,15.497 72.1436667,15.6843333 C72.263,16.0956667 72.3643333,16.4056667 72.4463333,16.615 L75.5663333,16.615 C75.2896667,16.047 75.1003333,15.5136667 74.9996667,15.0163333 C74.8983333,14.5183333 74.8483333,13.7463333 74.8483333,12.699 L74.8483333,12.699 Z M61.1216667,16.6156667 L64.275,16.6156667 L64.275,4.69833333 L61.1216667,4.69833333 L61.1216667,16.6156667 Z M61.1216667,3.08166667 L64.275,3.08166667 L64.275,0.164333333 L61.1216667,0.164333333 L61.1216667,3.08166667 Z M57.683,16.615 L60.8363333,16.615 L60.8363333,0.164333333 L57.683,0.164333333 L57.683,16.615 Z M53.5403333,13.5016667 C53.0536667,14.089 52.4443333,14.3823333 51.711,14.3823333 C50.9483333,14.3823333 50.301,14.0623333 49.7696667,13.423 C49.2383333,12.783 48.973,11.7936667 48.973,10.455 C48.973,9.28766667 49.2276667,8.407 49.7363333,7.81166667 C50.245,7.217 50.8843333,6.91966667 51.655,6.91966667 C52.3956667,6.91966667 53.017,7.223 53.5176667,7.82833333 C54.019,8.43433333 54.2696667,9.36233333 54.2696667,10.6116667 C54.2696667,11.951 54.0263333,12.9143333 53.5403333,13.5016667 L53.5403333,13.5016667 Z M52.5076667,4.42833333 C51.715,4.42833333 50.993,4.61566667 50.3423333,4.98966667 C49.6916667,5.36366667 49.175,5.85033333 48.7936667,6.44833333 L48.7936667,4.69833333 L45.8536667,4.69833333 L45.8536667,22.1596667 L49.007,22.1596667 L49.007,15.1456667 C49.5976667,15.781 50.161,16.2303333 50.6956667,16.4916667 C51.2303333,16.7536667 51.827,16.8843333 52.4856667,16.8843333 C53.8696667,16.8843333 55.0476667,16.333 56.0203333,15.2296667 C56.993,14.1263333 57.479,12.5796667 57.479,10.5896667 C57.479,8.65166667 56.9963333,7.141 56.0316667,6.05566667 C55.0663333,4.971 53.8916667,4.42833333 52.5076667,4.42833333 L52.5076667,4.42833333 Z M45.2336667,6.527 C45.4503333,7.03633333 45.559,7.859 45.559,8.99566667 L45.559,16.615 L42.4056667,16.615 L42.4056667,9.80366667 C42.4056667,8.62166667 42.297,7.859 42.0803333,7.51433333 C41.7883333,7.06566667 41.3396667,6.841 40.7336667,6.841 C40.2923333,6.841 39.877,6.97566667 39.4883333,7.24566667 C39.099,7.51433333 38.8183333,7.909 38.6463333,8.429 C38.4743333,8.949 38.3883333,9.76966667 38.3883333,10.8923333 L38.3883333,16.615 L35.235,16.615 L35.235,10.0843333 C35.235,8.925 35.179,8.17633333 35.067,7.83966667 C34.9543333,7.50366667 34.7803333,7.253 34.545,7.08833333 C34.3096667,6.92366667 33.9896667,6.841 33.5856667,6.841 C33.099,6.841 32.6616667,6.97233333 32.2723333,7.23433333 C31.8836667,7.49566667 31.605,7.87366667 31.4363333,8.367 C31.2683333,8.861 31.1843333,9.68033333 31.1843333,10.825 L31.1843333,16.615 L28.031,16.615 L28.031,4.69833333 L30.937,4.69833333 L30.937,6.325 C31.977,5.061 33.215,4.42833333 34.6516667,4.42833333 C35.4143333,4.42833333 36.077,4.58566667 36.6376667,4.89966667 C37.199,5.21366667 37.659,5.68966667 38.0183333,6.325 C38.5416667,5.68966667 39.1063333,5.21366667 39.7123333,4.89966667 C40.3183333,4.58566667 40.9656667,4.42833333 41.6536667,4.42833333 C42.529,4.42833333 43.2696667,4.60633333 43.8756667,4.96166667 C44.4816667,5.317 44.9343333,5.839 45.2336667,6.527 L45.2336667,6.527 Z M115.403667,15.7996667 C116.235667,15.161 116.903,14.533 117.405,13.9163333 C117.978333,14.615 118.621,15.2423333 119.331,15.7996667 L115.403667,15.7996667 Z M118.384333,12.791 L118.771,12.3003333 L116.727,12.3003333 C115.844333,13.653 114.288333,14.923 112.057,16.1116667 C112.401667,16.5276667 112.721,16.9663333 113.015,17.427 C113.495667,17.137 113.943667,16.851 114.359667,16.569 L114.359667,17.2263333 L120.471667,17.2263333 L120.471667,16.6136667 C120.887667,16.881 121.325,17.1256667 121.784333,17.349 C122.056333,16.9623333 122.383,16.5203333 122.763,16.023 C120.826333,15.1683333 119.366333,14.091 118.384333,12.791 L118.384333,12.791 Z M114.876333,21.3716667 L119.955,21.3716667 L119.955,19.611 L114.876333,19.611 L114.876333,21.3716667 Z M113.413,23.3336667 L114.876333,23.3336667 L114.876333,22.8203333 L119.955,22.8203333 L119.955,23.3336667 L121.418333,23.3336667 L121.418333,18.1623333 L113.413,18.1623333 L113.413,23.3336667 Z M116.393667,4.97833333 L117.835,4.97833333 C117.821,5.40233333 117.785,5.76966667 117.727667,6.08233333 L115.619,6.08233333 C115.891,5.725 116.149667,5.35766667 116.393667,4.97833333 L116.393667,4.97833333 Z M122.645,10.2496667 L114.058333,10.2496667 L114.058333,2.64966667 L116.103,2.64966667 C115.672333,3.63033333 115.120333,4.48433333 114.445667,5.21233333 C114.804333,5.50233333 115.134333,5.79233333 115.435667,6.08233333 L114.403,6.08233333 L114.403,7.35233333 L117.221667,7.35233333 C116.741,7.98366667 115.827,8.49633333 114.478333,8.89033333 C114.844333,9.32833333 115.177667,9.763 115.479,10.1943333 C116.684333,9.70366667 117.591667,9.10566667 118.201,8.39966667 C119.384333,9.05366667 120.428333,9.64433333 121.332333,10.1716667 L122.107,8.879 C120.995,8.329 119.915667,7.82033333 118.868333,7.35233333 L122.354333,7.35233333 L122.354333,6.08233333 L119.169667,6.08233333 C119.219667,5.755 119.251667,5.387 119.266333,4.97833333 L121.945667,4.97833333 L121.945667,3.70833333 L117.135667,3.70833333 C117.265,3.47033333 117.387,3.22566667 117.501667,2.973 L116.329,2.64966667 L122.591,2.64966667 L122.591,1.357 L112.638333,1.357 L112.638333,11.5423333 L122.645,11.5423333 L122.645,10.2496667 Z" id="Fill-1" fill="#6CDAAC" mask="url(#mask-2)"></path>
                    </g>
                    <polygon id="Fill-4" fill="#AAAAAA" points="52.2588 19.4511333 51.9268 19.4511333 51.9268 22.2104667 52.2588 22.2104667 52.2588 22.5958 51.1481333 22.5958 51.1481333 22.2104667 51.4808 22.2104667 51.4808 19.4511333 51.1481333 19.4511333 51.1481333 19.0658 52.2588 19.0658"></polygon>
                    <polygon id="Fill-6" fill="#AAAAAA" points="55.5498667 19.472 54.5532 19.472 54.5532 22.596 54.1045333 22.596 54.1045333 19.472 53.1125333 19.472 53.1125333 19.066 55.5498667 19.066"></polygon>
                    <path d="M58.5498667,21.9329333 C58.6552,22.0269333 58.7965333,22.1042667 58.9732,22.1649333 C59.1498667,22.2256 59.3178667,22.2556 59.4772,22.2556 C59.9618667,22.2556 60.2038667,22.0802667 60.2038667,21.7269333 C60.2038667,21.6289333 60.1778667,21.5396 60.1258667,21.4609333 C60.0738667,21.3822667 60.0032,21.3116 59.9118667,21.2516 C59.8212,21.1909333 59.6512,21.0969333 59.4012,20.9709333 C59.0552,20.7949333 58.8265333,20.6309333 58.7172,20.4796 C58.6072,20.3289333 58.5518667,20.1562667 58.5518667,19.9616 C58.5518667,19.6689333 58.6672,19.4362667 58.8972,19.2642667 C59.1278667,19.0922667 59.4185333,19.0069333 59.7692,19.0069333 C60.1132,19.0069333 60.3652,19.0496 60.5252,19.1349333 L60.5252,19.6309333 C60.3165333,19.4836 60.0538667,19.4102667 59.7358667,19.4102667 C59.5245333,19.4102667 59.3525333,19.4549333 59.2198667,19.5456 C59.0865333,19.6362667 59.0198667,19.7616 59.0198667,19.9222667 C59.0198667,20.0656 59.0658667,20.1816 59.1585333,20.2716 C59.2505333,20.3616 59.4505333,20.4836 59.7578667,20.6389333 C60.0972,20.8042667 60.3345333,20.9696 60.4698667,21.1349333 C60.6045333,21.3009333 60.6725333,21.4869333 60.6725333,21.6936 C60.6725333,22.0029333 60.5625333,22.2409333 60.3418667,22.4069333 C60.1218667,22.5722667 59.8165333,22.6549333 59.4258667,22.6549333 C59.2892,22.6549333 59.1298667,22.6356 58.9478667,22.5969333 C58.7652,22.5576 58.6325333,22.5096 58.5498667,22.4522667 L58.5498667,21.9329333 Z" id="Fill-8" fill="#AAAAAA"></path>
                    <path d="M62.21,21.3496 C62.21,21.6396 62.2813333,21.8676 62.4253333,22.0349333 C62.5686667,22.2022667 62.7613333,22.2856 63.0033333,22.2856 C63.2533333,22.2856 63.444,22.2042667 63.5746667,22.0409333 C63.7053333,21.8776 63.7713333,21.6429333 63.7713333,21.3376 C63.7713333,21.0309333 63.7053333,20.7956 63.5746667,20.6316 C63.444,20.4676 63.2533333,20.3856 63.0033333,20.3856 C62.7586667,20.3856 62.5646667,20.4716 62.4226667,20.6422667 C62.2806667,20.8142667 62.21,21.0502667 62.21,21.3496 M61.764,21.3629333 C61.764,20.9469333 61.878,20.6182667 62.1053333,20.3776 C62.3333333,20.1369333 62.6406667,20.0162667 63.0306667,20.0162667 C63.4006667,20.0162667 63.6913333,20.1322667 63.9013333,20.3636 C64.112,20.5956 64.2173333,20.9156 64.2173333,21.3242667 C64.2173333,21.7222667 64.1046667,22.0436 63.88,22.2882667 C63.656,22.5322667 63.3546667,22.6549333 62.9766667,22.6549333 C62.6086667,22.6549333 62.314,22.5362667 62.094,22.2996 C61.874,22.0622667 61.764,21.7509333 61.764,21.3629333" id="Fill-10" fill="#AAAAAA"></path>
                    <mask id="mask-4" fill="white">
                        <use xlink:href="#path-3"></use>
                    </mask>
                    <g id="Clip-13"></g>
                    <polygon id="Fill-12" fill="#AAAAAA" mask="url(#mask-4)" points="65.47 22.5962 65.9066667 22.5962 65.9066667 18.8655333 65.47 18.8655333"></polygon>
                    <path d="M69.3623333,22.5956667 L68.923,22.5956667 L68.923,22.199 L68.9136667,22.199 C68.749,22.503 68.495,22.655 68.1536667,22.655 C67.5696667,22.655 67.277,22.2983333 67.277,21.5836667 L67.277,20.0756667 L67.7096667,20.0756667 L67.7096667,21.5176667 C67.7096667,22.0296667 67.9016667,22.2856667 68.285,22.2856667 C68.4756667,22.2856667 68.629,22.2143333 68.7463333,22.0703333 C68.8643333,21.927 68.923,21.7456667 68.923,21.5263333 L68.923,20.0756667 L69.3623333,20.0756667 L69.3623333,22.5956667 Z" id="Fill-14" fill="#AAAAAA" mask="url(#mask-4)"></path>
                    <path d="M71.9639333,22.5709333 C71.8686,22.6236 71.7399333,22.6502667 71.5779333,22.6502667 C71.1366,22.6502667 70.9159333,22.4002667 70.9159333,21.9002667 L70.9159333,20.4449333 L70.4919333,20.4449333 L70.4919333,20.0756 L70.9159333,20.0756 L70.9159333,19.4696 L71.3506,19.3282667 L71.3506,20.0756 L71.9639333,20.0756 L71.9639333,20.4449333 L71.3506,20.4449333 L71.3506,21.8209333 C71.3506,21.9862667 71.3779333,22.1049333 71.4332667,22.1762667 C71.4879333,22.2482667 71.5799333,22.2829333 71.7072667,22.2829333 C71.8059333,22.2829333 71.8912667,22.2549333 71.9639333,22.1989333 L71.9639333,22.5709333 Z" id="Fill-15" fill="#AAAAAA" mask="url(#mask-4)"></path>
                    <path d="M73.118,22.5955333 L73.5546667,22.5955333 L73.5546667,20.0755333 L73.118,20.0755333 L73.118,22.5955333 Z M73.0666667,19.1868667 C73.0666667,19.1082 73.0933333,19.0415333 73.146,18.9875333 C73.1986667,18.9335333 73.264,18.9068667 73.3413333,18.9068667 C73.42,18.9068667 73.4866667,18.9328667 73.5406667,18.9862 C73.5953333,19.0395333 73.622,19.1062 73.622,19.1868667 C73.622,19.2655333 73.5953333,19.3315333 73.5406667,19.3842 C73.4866667,19.4362 73.42,19.4628667 73.3413333,19.4628667 C73.2626667,19.4628667 73.1966667,19.4362 73.1446667,19.3842 C73.0926667,19.3315333 73.0666667,19.2655333 73.0666667,19.1868667 L73.0666667,19.1868667 Z" id="Fill-16" fill="#AAAAAA" mask="url(#mask-4)"></path>
                    <path d="M75.2562,21.3496 C75.2562,21.6396 75.3275333,21.8676 75.4708667,22.0349333 C75.6148667,22.2022667 75.8075333,22.2856 76.0495333,22.2856 C76.2995333,22.2856 76.4902,22.2042667 76.6208667,22.0409333 C76.7515333,21.8776 76.8168667,21.6429333 76.8168667,21.3376 C76.8168667,21.0309333 76.7515333,20.7956 76.6208667,20.6316 C76.4902,20.4676 76.2995333,20.3856 76.0495333,20.3856 C75.8042,20.3856 75.6108667,20.4716 75.4688667,20.6422667 C75.3268667,20.8142667 75.2562,21.0502667 75.2562,21.3496 M74.8102,21.3629333 C74.8102,20.9469333 74.9235333,20.6182667 75.1515333,20.3776 C75.3788667,20.1369333 75.6868667,20.0162667 76.0762,20.0162667 C76.4468667,20.0162667 76.7368667,20.1322667 76.9475333,20.3636 C77.1582,20.5956 77.2628667,20.9156 77.2628667,21.3242667 C77.2628667,21.7222667 77.1508667,22.0436 76.9262,22.2882667 C76.7015333,22.5322667 76.4008667,22.6549333 76.0228667,22.6549333 C75.6548667,22.6549333 75.3595333,22.5362667 75.1402,22.2996 C74.9202,22.0622667 74.8102,21.7509333 74.8102,21.3629333" id="Fill-17" fill="#AAAAAA" mask="url(#mask-4)"></path>
                    <path d="M80.6026,22.5956667 L80.1679333,22.5956667 L80.1679333,21.1623333 C80.1679333,20.6443333 79.9826,20.3856667 79.6126,20.3856667 C79.4212667,20.3856667 79.2632667,20.4583333 79.1399333,20.6043333 C79.0166,20.7496667 78.9546,20.9343333 78.9546,21.1583333 L78.9546,22.5956667 L78.5179333,22.5956667 L78.5179333,20.0756667 L78.9546,20.0756667 L78.9546,20.493 L78.9639333,20.493 C79.1492667,20.175 79.4192667,20.0163333 79.7732667,20.0163333 C80.0432667,20.0163333 80.2499333,20.105 80.3912667,20.2816667 C80.5326,20.459 80.6026,20.717 80.6026,21.055 L80.6026,22.5956667 Z" id="Fill-18" fill="#AAAAAA" mask="url(#mask-4)"></path>
                    <path d="M81.8324,22.0514 C82.0524,22.2134 82.2897333,22.2947333 82.5437333,22.2947333 C82.8844,22.2947333 83.0544,22.1807333 83.0544,21.9534 C83.0544,21.8560667 83.0170667,21.7760667 82.9430667,21.7127333 C82.8690667,21.6494 82.7177333,21.5747333 82.4904,21.4880667 C82.2164,21.3754 82.0397333,21.2640667 81.9570667,21.1540667 C81.8750667,21.0440667 81.8350667,20.9107333 81.8350667,20.7547333 C81.8350667,20.5314 81.9277333,20.3520667 82.1124,20.2180667 C82.2970667,20.0834 82.5250667,20.0160667 82.7957333,20.0160667 C83.0057333,20.0160667 83.2004,20.0534 83.3797333,20.1280667 L83.3797333,20.5587333 C83.1957333,20.4367333 82.9864,20.3760667 82.7537333,20.3760667 C82.6137333,20.3760667 82.4997333,20.4074 82.4124,20.4694 C82.3244,20.5320667 82.2810667,20.6140667 82.2810667,20.7154 C82.2810667,20.8154 82.3124,20.8947333 82.3750667,20.9507333 C82.4384,21.0067333 82.5784,21.0787333 82.7957333,21.1674 C83.0704,21.2714 83.2570667,21.3800667 83.3530667,21.4927333 C83.4504,21.6054 83.4984,21.7440667 83.4984,21.9094 C83.4984,22.1407333 83.4057333,22.3227333 83.2204,22.4554 C83.0357333,22.5887333 82.7957333,22.6547333 82.5017333,22.6547333 C82.2457333,22.6547333 82.0230667,22.6054 81.8324,22.5074 L81.8324,22.0514 Z" id="Fill-19" fill="#AAAAAA" mask="url(#mask-4)"></path>
                    <path d="M87.2165333,19.4668 L87.2165333,20.8754667 L87.6285333,20.8754667 C87.9005333,20.8754667 88.1078667,20.8128 88.2492,20.6874667 C88.3898667,20.5621333 88.4605333,20.3821333 88.4605333,20.1481333 C88.4605333,19.6941333 88.1978667,19.4668 87.6712,19.4668 L87.2165333,19.4668 Z M87.2165333,21.2768 L87.2165333,22.5954667 L86.7705333,22.5954667 L86.7705333,19.0654667 L87.7518667,19.0654667 C88.1245333,19.0654667 88.4145333,19.1581333 88.6198667,19.3421333 C88.8258667,19.5254667 88.9285333,19.7881333 88.9285333,20.1301333 C88.9285333,20.4768 88.8085333,20.7574667 88.5672,20.9721333 C88.3265333,21.1868 88.0258667,21.2881333 87.6645333,21.2768 L87.2165333,21.2768 Z" id="Fill-20" fill="#AAAAAA" mask="url(#mask-4)"></path>
                    <path d="M91.4704,20.5175333 C91.3977333,20.4642 91.2970667,20.4382 91.1690667,20.4382 C90.9997333,20.4382 90.8597333,20.5188667 90.7497333,20.6802 C90.6397333,20.8422 90.5850667,21.0555333 90.5850667,21.3195333 L90.5850667,22.5955333 L90.1484,22.5955333 L90.1484,20.0755333 L90.5850667,20.0755333 L90.5850667,20.5875333 L90.5944,20.5875333 C90.7184,20.2175333 90.9337333,20.0315333 91.2404,20.0315333 C91.3404,20.0315333 91.4164,20.0435333 91.4704,20.0662 L91.4704,20.5175333 Z" id="Fill-21" fill="#AAAAAA" mask="url(#mask-4)"></path>
                    <path d="M92.7471333,21.3496 C92.7471333,21.6396 92.8184667,21.8676 92.9624667,22.0349333 C93.1058,22.2022667 93.2984667,22.2856 93.5404667,22.2856 C93.7904667,22.2856 93.9811333,22.2042667 94.1118,22.0409333 C94.2424667,21.8776 94.3084667,21.6429333 94.3084667,21.3376 C94.3084667,21.0309333 94.2424667,20.7956 94.1118,20.6316 C93.9811333,20.4676 93.7904667,20.3856 93.5404667,20.3856 C93.2958,20.3856 93.1018,20.4716 92.9598,20.6422667 C92.8178,20.8142667 92.7471333,21.0502667 92.7471333,21.3496 M92.3011333,21.3629333 C92.3011333,20.9469333 92.4151333,20.6182667 92.6424667,20.3776 C92.8704667,20.1369333 93.1778,20.0162667 93.5678,20.0162667 C93.9378,20.0162667 94.2284667,20.1322667 94.4384667,20.3636 C94.6491333,20.5956 94.7544667,20.9156 94.7544667,21.3242667 C94.7544667,21.7222667 94.6418,22.0436 94.4171333,22.2882667 C94.1931333,22.5322667 93.8918,22.6549333 93.5138,22.6549333 C93.1458,22.6549333 92.8511333,22.5362667 92.6311333,22.2996 C92.4111333,22.0622667 92.3011333,21.7509333 92.3011333,21.3629333" id="Fill-22" fill="#AAAAAA" mask="url(#mask-4)"></path>
                    <path d="M97.9958,20.0755333 L97.0191333,22.5955333 L96.5771333,22.5955333 L95.6498,20.0755333 L96.1271333,20.0755333 L96.7291333,21.8755333 C96.7784667,22.0202 96.8071333,22.1408667 96.8158,22.2375333 L96.8271333,22.2375333 C96.8424667,22.1102 96.8684667,21.9928667 96.9051333,21.8848667 L97.5364667,20.0755333 L97.9958,20.0755333 Z" id="Fill-23" fill="#AAAAAA" mask="url(#mask-4)"></path>
                    <path d="M99.0433333,22.5955333 L99.48,22.5955333 L99.48,20.0755333 L99.0433333,20.0755333 L99.0433333,22.5955333 Z M98.992,19.1868667 C98.992,19.1082 99.018,19.0415333 99.0713333,18.9875333 C99.124,18.9335333 99.1886667,18.9068667 99.266,18.9068667 C99.3446667,18.9068667 99.4113333,18.9328667 99.466,18.9862 C99.52,19.0395333 99.5473333,19.1062 99.5473333,19.1868667 C99.5473333,19.2655333 99.52,19.3315333 99.466,19.3842 C99.4113333,19.4362 99.3446667,19.4628667 99.266,19.4628667 C99.1873333,19.4628667 99.122,19.4362 99.07,19.3842 C99.018,19.3315333 98.992,19.2655333 98.992,19.1868667 L98.992,19.1868667 Z" id="Fill-24" fill="#AAAAAA" mask="url(#mask-4)"></path>
                    <path d="M102.6058,21.0963333 C102.6058,20.8943333 102.540467,20.725 102.410467,20.589 C102.280467,20.453 102.1198,20.3856667 101.9298,20.3856667 C101.698467,20.3856667 101.515133,20.4736667 101.381133,20.651 C101.2478,20.8283333 101.180467,21.069 101.180467,21.3743333 C101.180467,21.6556667 101.245133,21.8776667 101.373133,22.041 C101.502467,22.2043333 101.6738,22.2856667 101.8878,22.2856667 C102.098467,22.2856667 102.271133,22.2056667 102.404467,22.0456667 C102.538467,21.8856667 102.6058,21.6856667 102.6058,21.447 L102.6058,21.0963333 Z M103.040467,22.5956667 L102.603133,22.5956667 L102.603133,22.1763333 L102.594467,22.1763333 C102.414467,22.4956667 102.135133,22.655 101.756467,22.655 C101.4438,22.655 101.1958,22.5416667 101.011133,22.3143333 C100.827133,22.087 100.734467,21.7803333 100.734467,21.395 C100.734467,20.9783333 100.839133,20.6443333 101.047133,20.393 C101.255133,20.1416667 101.527133,20.0163333 101.863133,20.0163333 C102.199133,20.0163333 102.443133,20.1496667 102.594467,20.417 L102.603133,20.417 L102.603133,18.865 L103.040467,18.865 L103.040467,22.5956667 Z" id="Fill-25" fill="#AAAAAA" mask="url(#mask-4)"></path>
                    <path d="M106.032267,21.0918 C106.030933,20.8638 105.978267,20.6878 105.874267,20.5631333 C105.7696,20.4391333 105.6236,20.3764667 105.434933,20.3764667 C105.260933,20.3764667 105.110267,20.4418 104.9836,20.5751333 C104.856267,20.7064667 104.776267,20.8791333 104.7436,21.0918 L106.032267,21.0918 Z M106.4696,21.4498 L104.7436,21.4498 C104.750933,21.7178 104.8236,21.9264667 104.960267,22.0731333 C105.096933,22.2191333 105.2876,22.2924667 105.532933,22.2924667 C105.8096,22.2924667 106.062933,22.2024667 106.2936,22.0218 L106.2936,22.4198 C106.076267,22.5771333 105.788933,22.6551333 105.430267,22.6551333 C105.0736,22.6551333 104.7956,22.5398 104.5956,22.3084667 C104.3956,22.0778 104.2956,21.7571333 104.2956,21.3471333 C104.2956,20.9611333 104.4056,20.6424667 104.624267,20.3924667 C104.8436,20.1411333 105.116267,20.0164667 105.4416,20.0164667 C105.764267,20.0164667 106.016267,20.1224667 106.1976,20.3338 C106.378933,20.5464667 106.4696,20.8424667 106.4696,21.2238 L106.4696,21.4498 Z" id="Fill-26" fill="#AAAAAA" mask="url(#mask-4)"></path>
                    <path d="M109.012733,20.5175333 C108.940067,20.4642 108.8394,20.4382 108.712067,20.4382 C108.542067,20.4382 108.402733,20.5188667 108.292733,20.6802 C108.182733,20.8422 108.1274,21.0555333 108.1274,21.3195333 L108.1274,22.5955333 L107.690733,22.5955333 L107.690733,20.0755333 L108.1274,20.0755333 L108.1274,20.5875333 L108.136733,20.5875333 C108.2614,20.2175333 108.476733,20.0315333 108.782733,20.0315333 C108.882733,20.0315333 108.9594,20.0435333 109.012733,20.0662 L109.012733,20.5175333 Z" id="Fill-27" fill="#AAAAAA" mask="url(#mask-4)"></path>
                    <path d="M4.10026667,22.6623333 L4.10026667,20.3243333 C4.10026667,20.1316667 4.1116,19.8996667 4.1336,19.6296667 L4.12226667,19.6296667 C4.08426667,19.7996667 4.0496,19.9183333 4.0196,19.985 L2.88026667,22.6623333 L2.63293333,22.6623333 L1.4956,20.0056667 C1.46893333,19.945 1.43493333,19.819 1.39293333,19.6296667 L1.3796,19.6296667 C1.39426667,19.7936667 1.40226667,20.0323333 1.40226667,20.3443333 L1.40226667,22.6623333 L0.976266667,22.6623333 L0.976266667,19.1323333 L1.58026667,19.1323333 L2.5996,21.553 C2.67693333,21.7376667 2.72826667,21.8823333 2.75293333,21.985 L2.76893333,21.985 C2.84626667,21.7683333 2.90093333,21.621 2.9316,21.5436667 L3.96893333,19.1323333 L4.54426667,19.1323333 L4.54426667,22.6623333 L4.10026667,22.6623333 Z" id="Fill-28" fill="#AAAAAA" mask="url(#mask-4)"></path>
                    <path d="M7.59346667,21.1584667 C7.59213333,20.9304667 7.53946667,20.7544667 7.43546667,20.6298 C7.3308,20.5058 7.1848,20.4431333 6.99613333,20.4431333 C6.82213333,20.4431333 6.67146667,20.5084667 6.5448,20.6418 C6.41746667,20.7731333 6.33746667,20.9458 6.3048,21.1584667 L7.59346667,21.1584667 Z M8.0308,21.5164667 L6.3048,21.5164667 C6.31213333,21.7844667 6.3848,21.9931333 6.52146667,22.1398 C6.65813333,22.2858 6.8488,22.3591333 7.09413333,22.3591333 C7.3708,22.3591333 7.62413333,22.2691333 7.8548,22.0884667 L7.8548,22.4864667 C7.63746667,22.6438 7.35013333,22.7218 6.99146667,22.7218 C6.6348,22.7218 6.3568,22.6064667 6.1568,22.3751333 C5.9568,22.1444667 5.8568,21.8238 5.8568,21.4138 C5.8568,21.0278 5.9668,20.7091333 6.18546667,20.4591333 C6.4048,20.2078 6.67746667,20.0831333 7.0028,20.0831333 C7.32546667,20.0831333 7.57746667,20.1891333 7.7588,20.4004667 C7.94013333,20.6131333 8.0308,20.9091333 8.0308,21.2904667 L8.0308,21.5164667 Z" id="Fill-29" fill="#AAAAAA" mask="url(#mask-4)"></path>
                    <path d="M10.9580667,21.163 C10.9580667,20.961 10.8927333,20.7916667 10.7627333,20.6556667 C10.6327333,20.5196667 10.4720667,20.4523333 10.2820667,20.4523333 C10.0507333,20.4523333 9.8674,20.5403333 9.7334,20.7176667 C9.60006667,20.895 9.53273333,21.1356667 9.53273333,21.441 C9.53273333,21.7223333 9.5974,21.9443333 9.7254,22.1076667 C9.85473333,22.271 10.0260667,22.3523333 10.2400667,22.3523333 C10.4507333,22.3523333 10.6234,22.2723333 10.7567333,22.1123333 C10.8907333,21.9523333 10.9580667,21.7523333 10.9580667,21.5136667 L10.9580667,21.163 Z M11.3927333,22.6623333 L10.9554,22.6623333 L10.9554,22.243 L10.9467333,22.243 C10.7667333,22.5623333 10.4874,22.7216667 10.1087333,22.7216667 C9.79606667,22.7216667 9.54806667,22.6083333 9.3634,22.381 C9.1794,22.1536667 9.08673333,21.847 9.08673333,21.4616667 C9.08673333,21.045 9.1914,20.711 9.3994,20.4596667 C9.6074,20.2083333 9.8794,20.083 10.2154,20.083 C10.5514,20.083 10.7954,20.2163333 10.9467333,20.4836667 L10.9554,20.4836667 L10.9554,18.9316667 L11.3927333,18.9316667 L11.3927333,22.6623333 Z" id="Fill-30" fill="#AAAAAA" mask="url(#mask-4)"></path>
                    <path d="M12.81,22.6622 L13.2466667,22.6622 L13.2466667,20.1422 L12.81,20.1422 L12.81,22.6622 Z M12.7586667,19.2535333 C12.7586667,19.1748667 12.7846667,19.1082 12.838,19.0542 C12.8906667,19.0002 12.9553333,18.9735333 13.0326667,18.9735333 C13.112,18.9735333 13.178,18.9995333 13.2326667,19.0528667 C13.2866667,19.1062 13.314,19.1728667 13.314,19.2535333 C13.314,19.3322 13.2866667,19.3982 13.2326667,19.4508667 C13.178,19.5028667 13.112,19.5295333 13.0326667,19.5295333 C12.954,19.5295333 12.8893333,19.5028667 12.8366667,19.4508667 C12.7846667,19.3982 12.7586667,19.3322 12.7586667,19.2535333 L12.7586667,19.2535333 Z" id="Fill-31" fill="#AAAAAA" mask="url(#mask-4)"></path>
                    <path d="M16.3701333,22.5484 C16.1814667,22.6637333 15.9541333,22.7217333 15.6881333,22.7217333 C15.3308,22.7217333 15.0448,22.6044 14.8274667,22.3704 C14.6101333,22.1370667 14.5014667,21.8337333 14.5014667,21.4617333 C14.5014667,21.0484 14.6188,20.7150667 14.8534667,20.4624 C15.0868,20.2090667 15.4001333,20.0830667 15.7928,20.0830667 C16.0188,20.0830667 16.2121333,20.1237333 16.3728,20.2057333 L16.3728,20.6477333 C16.1988,20.5170667 16.0054667,20.4517333 15.7928,20.4517333 C15.5434667,20.4517333 15.3394667,20.5404 15.1834667,20.7177333 C15.0261333,20.8950667 14.9474667,21.1304 14.9474667,21.4250667 C14.9474667,21.7150667 15.0221333,21.9424 15.1694667,22.1064 C15.3174667,22.2704 15.5174667,22.3524 15.7688,22.3524 C15.9808,22.3524 16.1814667,22.2810667 16.3701333,22.1384 L16.3701333,22.5484 Z" id="Fill-32" fill="#AAAAAA" mask="url(#mask-4)"></path>
                    <path d="M18.3858,21.4774667 C18.1831333,21.5048 18.0438,21.5561333 17.9671333,21.6321333 C17.8911333,21.7088 17.8524667,21.8148 17.8524667,21.9514667 C17.8524667,22.0714667 17.8944667,22.1694667 17.9778,22.2454667 C18.0611333,22.3214667 18.1711333,22.3588 18.3078,22.3588 C18.4978,22.3588 18.6544667,22.2914667 18.7778,22.1548 C18.9011333,22.0181333 18.9631333,21.8461333 18.9631333,21.6388 L18.9631333,21.3981333 L18.3858,21.4774667 Z M17.6538,20.3174667 C17.8998,20.1608 18.1824667,20.0828 18.5038,20.0828 C19.0978,20.0828 19.3958,20.4021333 19.3958,21.0401333 L19.3958,22.6621333 L18.9631333,22.6621333 L18.9631333,22.2728 L18.9524667,22.2728 C18.7811333,22.5721333 18.5291333,22.7214667 18.1958,22.7214667 C17.9564667,22.7214667 17.7664667,22.6561333 17.6251333,22.5228 C17.4838,22.3914667 17.4131333,22.2128 17.4131333,21.9881333 C17.4131333,21.5174667 17.6858,21.2428 18.2318,21.1648 L18.9631333,21.0608 C18.9631333,20.6488 18.7964667,20.4428 18.4631333,20.4428 C18.1678,20.4428 17.8984667,20.5448 17.6538,20.7481333 L17.6538,20.3174667 Z" id="Fill-33" fill="#AAAAAA" mask="url(#mask-4)"></path>
                    <polygon id="Fill-34" fill="#AAAAAA" mask="url(#mask-4)" points="20.7573333 22.6628667 21.194 22.6628667 21.194 18.9322 20.7573333 18.9322"></polygon>
                    <path d="M25.1064667,19.5386667 L25.1064667,22.2586667 L25.6084667,22.2586667 C26.0464667,22.2586667 26.3891333,22.1366667 26.6351333,21.892 C26.8811333,21.6473333 27.0044667,21.3046667 27.0044667,20.864 C27.0044667,20.424 26.8778,20.0926667 26.6251333,19.8706667 C26.3718,19.6493333 26.0398,19.5386667 25.6284667,19.5386667 L25.1064667,19.5386667 Z M24.6604667,22.6626667 L24.6604667,19.1326667 L25.6464667,19.1326667 C26.1698,19.1326667 26.6044667,19.2886667 26.9518,19.6 C27.2991333,19.9113333 27.4724667,20.3293333 27.4724667,20.8533333 C27.4724667,21.4 27.2991333,21.838 26.9518,22.1673333 C26.6044667,22.4973333 26.1578,22.6626667 25.6104667,22.6626667 L24.6604667,22.6626667 Z" id="Fill-35" fill="#AAAAAA" mask="url(#mask-4)"></path>
                    <path d="M30.2946667,21.1584667 C30.2933333,20.9304667 30.2406667,20.7544667 30.1366667,20.6298 C30.032,20.5058 29.886,20.4431333 29.6973333,20.4431333 C29.5233333,20.4431333 29.3726667,20.5084667 29.246,20.6418 C29.1186667,20.7731333 29.0386667,20.9458 29.006,21.1584667 L30.2946667,21.1584667 Z M30.732,21.5164667 L29.006,21.5164667 C29.0133333,21.7844667 29.086,21.9931333 29.2226667,22.1398 C29.3593333,22.2858 29.55,22.3591333 29.7953333,22.3591333 C30.072,22.3591333 30.3253333,22.2691333 30.556,22.0884667 L30.556,22.4864667 C30.3386667,22.6438 30.0513333,22.7218 29.6926667,22.7218 C29.336,22.7218 29.058,22.6064667 28.858,22.3751333 C28.658,22.1444667 28.558,21.8238 28.558,21.4138 C28.558,21.0278 28.668,20.7091333 28.8866667,20.4591333 C29.106,20.2078 29.3786667,20.0831333 29.704,20.0831333 C30.0266667,20.0831333 30.2786667,20.1891333 30.46,20.4004667 C30.6413333,20.6131333 30.732,20.9091333 30.732,21.2904667 L30.732,21.5164667 Z" id="Fill-36" fill="#AAAAAA" mask="url(#mask-4)"></path>
                    <path d="M33.9398,20.1421333 L32.9631333,22.6621333 L32.5218,22.6621333 L31.5938,20.1421333 L32.0711333,20.1421333 L32.6738,21.9421333 C32.7224667,22.0868 32.7518,22.2074667 32.7598,22.3041333 L32.7718,22.3041333 C32.7864667,22.1768 32.8124667,22.0594667 32.8491333,21.9514667 L33.4811333,20.1421333 L33.9398,20.1421333 Z" id="Fill-37" fill="#AAAAAA" mask="url(#mask-4)"></path>
                    <path d="M34.9873333,22.6622 L35.424,22.6622 L35.424,20.1422 L34.9873333,20.1422 L34.9873333,22.6622 Z M34.936,19.2535333 C34.936,19.1748667 34.962,19.1082 35.0153333,19.0542 C35.068,19.0002 35.1326667,18.9735333 35.21,18.9735333 C35.2886667,18.9735333 35.3553333,18.9995333 35.41,19.0528667 C35.464,19.1062 35.4913333,19.1728667 35.4913333,19.2535333 C35.4913333,19.3322 35.464,19.3982 35.41,19.4508667 C35.3553333,19.5028667 35.2886667,19.5295333 35.21,19.5295333 C35.1313333,19.5295333 35.066,19.5028667 35.014,19.4508667 C34.962,19.3982 34.936,19.3322 34.936,19.2535333 L34.936,19.2535333 Z" id="Fill-38" fill="#AAAAAA" mask="url(#mask-4)"></path>
                    <path d="M38.5478667,22.5484 C38.3592,22.6637333 38.1312,22.7217333 37.8658667,22.7217333 C37.5085333,22.7217333 37.2218667,22.6044 37.0052,22.3704 C36.7872,22.1370667 36.6792,21.8337333 36.6792,21.4617333 C36.6792,21.0484 36.7958667,20.7150667 37.0305333,20.4624 C37.2645333,20.2090667 37.5778667,20.0830667 37.9705333,20.0830667 C38.1965333,20.0830667 38.3898667,20.1237333 38.5498667,20.2057333 L38.5498667,20.6477333 C38.3758667,20.5170667 38.1825333,20.4517333 37.9705333,20.4517333 C37.7205333,20.4517333 37.5172,20.5404 37.3605333,20.7177333 C37.2032,20.8950667 37.1252,21.1304 37.1252,21.4250667 C37.1252,21.7150667 37.1992,21.9424 37.3465333,22.1064 C37.4952,22.2704 37.6945333,22.3524 37.9458667,22.3524 C38.1585333,22.3524 38.3592,22.2810667 38.5478667,22.1384 L38.5478667,22.5484 Z" id="Fill-39" fill="#AAAAAA" mask="url(#mask-4)"></path>
                    <path d="M41.3454,21.1584667 C41.3440667,20.9304667 41.2914,20.7544667 41.1874,20.6298 C41.0827333,20.5058 40.9367333,20.4431333 40.7480667,20.4431333 C40.5740667,20.4431333 40.4234,20.5084667 40.2967333,20.6418 C40.1694,20.7731333 40.0894,20.9458 40.0567333,21.1584667 L41.3454,21.1584667 Z M41.7827333,21.5164667 L40.0567333,21.5164667 C40.0640667,21.7844667 40.1367333,21.9931333 40.2734,22.1398 C40.4100667,22.2858 40.6007333,22.3591333 40.8460667,22.3591333 C41.1227333,22.3591333 41.3760667,22.2691333 41.6067333,22.0884667 L41.6067333,22.4864667 C41.3894,22.6438 41.1020667,22.7218 40.7434,22.7218 C40.3867333,22.7218 40.1087333,22.6064667 39.9087333,22.3751333 C39.7087333,22.1444667 39.6087333,21.8238 39.6087333,21.4138 C39.6087333,21.0278 39.7187333,20.7091333 39.9374,20.4591333 C40.1567333,20.2078 40.4294,20.0831333 40.7547333,20.0831333 C41.0774,20.0831333 41.3294,20.1891333 41.5107333,20.4004667 C41.6920667,20.6131333 41.7827333,20.9091333 41.7827333,21.2904667 L41.7827333,21.5164667 Z" id="Fill-40" fill="#AAAAAA" mask="url(#mask-4)"></path>
                    <path d="M42.8656,22.1180667 C43.0856,22.2800667 43.3229333,22.3614 43.5762667,22.3614 C43.9169333,22.3614 44.0876,22.2474 44.0876,22.0200667 C44.0876,21.9227333 44.0502667,21.8427333 43.9756,21.7794 C43.9016,21.7160667 43.7502667,21.6414 43.5229333,21.5547333 C43.2496,21.4420667 43.0722667,21.3307333 42.9902667,21.2207333 C42.9082667,21.1107333 42.8676,20.9774 42.8676,20.8214 C42.8676,20.5980667 42.9602667,20.4187333 43.1456,20.2847333 C43.3302667,20.1500667 43.5582667,20.0827333 43.8282667,20.0827333 C44.0382667,20.0827333 44.2329333,20.1200667 44.4129333,20.1947333 L44.4129333,20.6254 C44.2289333,20.5034 44.0196,20.4427333 43.7862667,20.4427333 C43.6469333,20.4427333 43.5329333,20.4740667 43.4449333,20.5360667 C43.3576,20.5987333 43.3136,20.6807333 43.3136,20.7820667 C43.3136,20.8820667 43.3456,20.9614 43.4082667,21.0174 C43.4716,21.0734 43.6116,21.1454 43.8282667,21.2340667 C44.1036,21.3380667 44.2896,21.4467333 44.3862667,21.5594 C44.4829333,21.6720667 44.5309333,21.8107333 44.5309333,21.9760667 C44.5309333,22.2074 44.4382667,22.3894 44.2536,22.5220667 C44.0689333,22.6554 43.8282667,22.7214 43.5342667,22.7214 C43.2789333,22.7214 43.0556,22.6720667 42.8656,22.5740667 L42.8656,22.1180667 Z" id="Fill-41" fill="#AAAAAA" mask="url(#mask-4)"></path>
                </g>
            </g>
        </g>
    </g>
</svg>