<?xml version="1.0" encoding="UTF-8"?>
<svg width="12px" height="12px" viewBox="0 0 12 12" version="1.1" xmlns="http://www.w3.org/2000/svg" xmlns:xlink="http://www.w3.org/1999/xlink">
    <!-- Generator: Sketch 40.3 (33839) - http://www.bohemiancoding.com/sketch -->
    <title>xiugai</title>
    <desc>Created with Sketch.</desc>
    <defs></defs>
    <g id="Page-1" stroke="none" stroke-width="1" fill="none" fill-rule="evenodd">
        <g id="2-1-1-1-首营-产品资质-产品资质查询" transform="translate(-228.000000, -337.000000)" fill="#1FB5AC">
            <g id="Group" transform="translate(214.000000, 66.000000)">
                <g id="4个功能键" transform="translate(0.000000, 260.000000)">
                    <g id="修改" transform="translate(14.000000, 11.000000)">
                        <path d="M9.9018,0 L1.7964,0 C0.8058,0 0,0.8046 0,1.7964 L0,10.2036 C0,11.1942 0.8046,12 1.7964,12 L10.2036,12 C11.1942,12 12,11.1954 12,10.2036 L12,2.0982 L12,2.4 L10.8,4.2 L10.8,10.2036 C10.8,10.5324 10.5318,10.8 10.2036,10.8 L1.7964,10.8 C1.4676,10.8 1.2,10.5318 1.2,10.2036 L1.2,1.7964 C1.2,1.4676 1.4682,1.2 1.7964,1.2 L7.8036,1.2 L9.6,0 L9.9018,0 L9.9018,0 Z M10.7406,0.4236 C10.9746,0.1896 11.3526,0.1884 11.5884,0.4242 C11.823,0.6588 11.823,1.0386 11.589,1.272 L6.4974,6.3636 L5.2248,6.7878 L5.649,5.5152 L10.7406,0.4236 L10.7406,0.4236 Z" id="xiugai"></path>
                    </g>
                </g>
            </g>
        </g>
    </g>
</svg>