<?xml version="1.0" encoding="UTF-8"?>
<svg width="12px" height="12px" viewBox="0 0 12 12" version="1.1" xmlns="http://www.w3.org/2000/svg" xmlns:xlink="http://www.w3.org/1999/xlink">
    <defs>
        <polygon id="path-1" points="6.99979052 0 0.5952 0 0.5952 6.4156 6.99979052 6.4156"></polygon>
        <polygon id="path-3" points="12 5.9999 12 0 0 0 0 5.9999 0 11.9998 12 11.9998"></polygon>
    </defs>
    <g id="Page-1" stroke="none" stroke-width="1" fill="none" fill-rule="evenodd">
        <g id="Custom-Preset" transform="translate(-1098.000000, -359.000000)">
            <g id="修改BG-滑过" transform="translate(1086.000000, 348.000000)">
                <g id="修改icon-滑过" transform="translate(12.000000, 11.000000)">
                    <g id="Group-3" transform="translate(5.000000, 0.000000)">
                        <mask id="mask-2" fill="white">
                            <use xlink:href="#path-1"></use>
                        </mask>
                        <g id="Clip-2"></g>
                        <path d="M0.5952,6.4156 L1.6932,6.0216 L6.7842,0.9306 C7.0182,0.6966 7.0902,0.3896 6.8562,0.1546 C6.6202,-0.0814 6.2892,-0.0334 6.0552,0.2016 L0.9632,5.2926 L0.5952,6.4156 Z" id="Fill-1" fill="#FFFFFF" mask="url(#mask-2)"></path>
                    </g>
                    <g id="Group-6">
                        <mask id="mask-4" fill="white">
                            <use xlink:href="#path-3"></use>
                        </mask>
                        <g id="Clip-5"></g>
                        <path d="M11,3.5178 L11,10.1558 C11,10.4848 10.532,10.9998 10.204,10.9998 L1.796,10.9998 C1.468,10.9998 1,10.5318 1,10.2038 L1,1.7968 C1,1.4678 1.468,0.9998 1.796,0.9998 L8.495,0.9998 L9.6,-0.0002 L1.796,-0.0002 C0.806,-0.0002 0,0.8048 0,1.7968 L0,10.2038 C0,11.1938 0.805,11.9998 1.796,11.9998 L10.204,11.9998 C11.194,11.9998 12,11.1948 12,10.2038 L12,2.3998 L11,3.5178 Z" id="Fill-4" fill="#FFFFFF" mask="url(#mask-4)"></path>
                    </g>
                </g>
            </g>
        </g>
    </g>
</svg>