<?xml version="1.0" encoding="UTF-8"?>
<svg width="12px" height="12px" viewBox="0 0 12 12" version="1.1" xmlns="http://www.w3.org/2000/svg" xmlns:xlink="http://www.w3.org/1999/xlink">
    <!-- Generator: Sketch 40.3 (33839) - http://www.bohemiancoding.com/sketch -->
    <title>xiayiye</title>
    <desc>Created with Sketch.</desc>
    <defs></defs>
    <g id="Page-1" stroke="none" stroke-width="1" fill="none" fill-rule="evenodd">
        <g id="2-1-1-1-首营-产品资质-产品资质查询" transform="translate(-1324.000000, -715.000000)" fill="#777777">
            <g id="Group" transform="translate(214.000000, 66.000000)">
                <g id="跳转页" transform="translate(892.000000, 645.000000)">
                    <g id="xiayiye" transform="translate(218.000000, 4.000000)">
                        <path d="M5.87709091,11.837547 L11.3301558,6.33414436 C11.3381818,6.32611839 11.3406753,6.3152093 11.3481558,6.30671579 C11.3501039,6.30468982 11.3531429,6.30422228 11.3550909,6.30219631 C11.5484935,6.10637813 11.5474805,5.79087163 11.3521299,5.5970015 L5.84919481,0.144482024 C5.6532987,-0.0493881055 5.33833766,-0.047907586 5.14446753,0.147443063 C5.04831169,0.244611894 5,0.371702804 5,0.498248258 C5,0.626352154 5.04932468,0.754923583 5.14750649,0.852092414 L10.2995584,5.95785865 L5.1694026,11.1358586 C5.07324675,11.2330275 5.02485714,11.3596509 5.02485714,11.4866638 C5.02485714,11.6153132 5.07425974,11.7433392 5.17244156,11.840508 C5.36779221,12.0343781 5.68322078,12.0328976 5.87709091,11.837547" id="下一页"></path>
                        <path d="M0.877090909,11.837547 L6.33015584,6.33414436 C6.33818182,6.32611839 6.34067532,6.3152093 6.34815584,6.30671579 C6.3501039,6.30468982 6.35314286,6.30422228 6.35509091,6.30219631 C6.54849351,6.10637813 6.54748052,5.79087163 6.35212987,5.5970015 L0.849194805,0.144482024 C0.653298701,-0.0493881055 0.338337662,-0.047907586 0.144467532,0.147443063 C0.0483116883,0.244611894 0,0.371702804 0,0.498248258 C0,0.626352154 0.0493246753,0.754923583 0.147506494,0.852092414 L5.29955844,5.95785865 L0.169402597,11.1358586 C0.0732467532,11.2330275 0.0248571429,11.3596509 0.0248571429,11.4866638 C0.0248571429,11.6153132 0.0742597403,11.7433392 0.172441558,11.840508 C0.367792208,12.0343781 0.683220779,12.0328976 0.877090909,11.837547" id="下一页"></path>
                    </g>
                </g>
            </g>
        </g>
    </g>
</svg>