<?xml version="1.0" encoding="UTF-8"?>
<svg width="12px" height="12px" viewBox="0 0 12 12" version="1.1" xmlns="http://www.w3.org/2000/svg" xmlns:xlink="http://www.w3.org/1999/xlink">
    <!-- Generator: Sketch 40.3 (33839) - http://www.bohemiancoding.com/sketch -->
    <title>折叠菜单icon-1</title>
    <desc>Created with Sketch.</desc>
    <defs></defs>
    <g id="Page-1" stroke="none" stroke-width="1" fill="none" fill-rule="evenodd">
        <g id="0-2-个人中心下拉菜单" transform="translate(-742.000000, -181.000000)" fill="#1FB5AC">
            <g id="Group" transform="translate(214.000000, 115.000000)">
                <g id="折叠菜单" transform="translate(0.000000, 54.000000)">
                    <g transform="translate(528.000000, 11.000000)" id="折叠菜单icon-1">
                        <g transform="translate(0.000000, 1.000000)">
                            <path d="M5.9995,9.991 C5.9175,9.991 5.8345,9.967 5.7615,9.92 L0.2245,6.315 C0.0055,6.172 -0.0655,5.865 0.0655,5.629 C0.1975,5.392 0.4805,5.315 0.6995,5.457 L5.9995,8.908 L11.2995,5.457 C11.5185,5.315 11.8015,5.392 11.9335,5.629 C12.0645,5.865 11.9935,6.172 11.7745,6.315 L6.2375,9.92 C6.1645,9.967 6.0815,9.991 5.9995,9.991" id="Fill-4"></path>
                            <path d="M5.9995,11.9949 C5.9175,11.9949 5.8345,11.9709 5.7615,11.9239 L0.2245,8.3189 C0.0055,8.1759 -0.0655,7.8689 0.0655,7.6329 C0.1975,7.3959 0.4805,7.3189 0.6995,7.4609 L5.9995,10.9119 L11.2995,7.4609 C11.5185,7.3189 11.8015,7.3959 11.9335,7.6329 C12.0645,7.8689 11.9935,8.1759 11.7745,8.3189 L6.2375,11.9239 C6.1645,11.9709 6.0815,11.9949 5.9995,11.9949" id="Fill-7"></path>
                            <path d="M1.3774,3.9994 L5.9994,6.9204 L10.6214,3.9994 L5.9994,1.0784 L1.3774,3.9994 Z M5.9994,7.9994 C5.9184,7.9994 5.8384,7.9764 5.7664,7.9314 L0.2294,4.4314 C0.0874,4.3414 0.000400000001,4.1774 0.000400000001,3.9994 C0.000400000001,3.8214 0.0874,3.6574 0.2294,3.5674 L5.7664,0.0674 C5.9094,-0.0216 6.0874,-0.0226 6.2314,0.0674 L11.7704,3.5674 C11.9124,3.6574 11.9994,3.8214 11.9994,3.9994 C11.9994,4.1774 11.9124,4.3414 11.7704,4.4314 L6.2314,7.9314 C6.1604,7.9764 6.0794,7.9994 5.9994,7.9994 L5.9994,7.9994 Z" id="Fill-1"></path>
                        </g>
                    </g>
                </g>
            </g>
        </g>
    </g>
</svg>