<?xml version="1.0" encoding="UTF-8"?>
<svg width="13px" height="12px" viewBox="0 0 13 12" version="1.1" xmlns="http://www.w3.org/2000/svg" xmlns:xlink="http://www.w3.org/1999/xlink">
    <!-- Generator: Sketch 40.3 (33839) - http://www.bohemiancoding.com/sketch -->
    <title>dayin</title>
    <desc>Created with Sketch.</desc>
    <defs></defs>
    <g id="Page-1" stroke="none" stroke-width="1" fill="none" fill-rule="evenodd">
        <g id="2-1-1-1-首营-产品资质-产品资质查询" transform="translate(-1213.000000, -337.000000)" fill="#1FB5AC">
            <g id="Group" transform="translate(214.000000, 66.000000)">
                <g id="4个功能键" transform="translate(0.000000, 260.000000)">
                    <g id="打印" transform="translate(999.000000, 11.000000)">
                        <path d="M13,4.23529412 L12.0113327,1.33976471 C11.7578468,0.597176471 10.9056719,0 10.1054941,0 L2.89522804,0 C2.09505027,0 1.24215321,0.6 0.989389478,1.33976471 L0.000722182101,4.23529412 L1.64946392,4.23529412 L2.27704016,2.06682353 C2.41569913,1.70541176 2.84973057,1.41176471 3.24693073,1.41176471 L9.75306927,1.41176471 C10.1502694,1.41176471 10.5879118,1.71388235 10.7229598,2.06682353 L11.3505361,4.23529412 L13,4.23529412 Z M5.40842175,6.25411765 C5.40842175,6.25411765 5.70307205,7.05882353 6.50036109,7.05882353 C7.29837231,7.05882353 7.59230043,6.25411765 7.59230043,6.25411765 C7.78656741,5.91882353 8.26104105,5.64705882 8.66907394,5.64705882 L13,5.64705882 L13,9.88023529 C13,11.0512941 12.0228876,12 10.838509,12 L2.16149103,12 C0.967724015,12 0,11.0527059 0,9.88023529 L0,5.64705882 L4.33092606,5.64705882 C4.73173713,5.64705882 5.20621077,5.93294118 5.40842175,6.25411765 Z M2.16221321,10.5882353 L10.8392312,10.5882353 C11.2284873,10.5882353 11.556358,10.2684706 11.556358,9.88023529 L11.556358,7.05882353 L8.66762958,7.05882353 C8.66762958,7.05882353 8.09638353,8.47058824 6.50108327,8.47058824 C4.90578301,8.47058824 4.33453697,7.05882353 4.33453697,7.05882353 L1.44580857,7.05882353 L1.44580857,9.88023529 C1.44508638,10.2734118 1.76645742,10.5882353 2.16221321,10.5882353 Z" id="dayin"></path>
                    </g>
                </g>
            </g>
        </g>
    </g>
</svg>