<?xml version="1.0" encoding="UTF-8"?>
<svg width="12px" height="12px" viewBox="0 0 12 12" version="1.1" xmlns="http://www.w3.org/2000/svg" xmlns:xlink="http://www.w3.org/1999/xlink">
    <defs></defs>
    <g id="Page-1" stroke="none" stroke-width="1" fill="none" fill-rule="evenodd">
        <g id="Custom-Preset" transform="translate(-1098.000000, -435.000000)" fill="#FFFFFF">
            <g id="打印BG-滑过" transform="translate(1086.000000, 424.000000)">
                <g id="打印" transform="translate(12.000000, 10.000000)">
                    <g id="打印icon-滑过" transform="translate(0.000000, 1.000000)">
                        <path d="M1,6 L1,10.5 C1,10.776 1.224,11 1.5,11 L10.5,11 C10.776,11 11,10.776 11,10.5 L11,6 L7.937,6 C7.714,6.862 6.93,7.5 6,7.5 C5.07,7.5 4.286,6.862 4.063,6 L1,6 Z M10.5,12 L1.5,12 C0.673,12 0,11.327 0,10.5 L0,5.5 C0,5.224 0.224,5 0.5,5 L4.5,5 C4.776,5 5,5.224 5,5.5 C5,6.051 5.449,6.5 6,6.5 C6.551,6.5 7,6.051 7,5.5 C7,5.224 7.224,5 7.5,5 L11.5,5 C11.776,5 12,5.224 12,5.5 L12,10.5 C12,11.327 11.327,12 10.5,12 L10.5,12 Z" id="Fill-4"></path>
                        <path d="M11.4994,4.0029 C11.2744,4.0029 11.0704,3.8509 11.0144,3.6229 L10.3094,1.7569 C10.1994,1.3119 9.8014,0.9999 9.3424,0.9999 L2.6574,0.9999 C2.1984,0.9999 1.8004,1.3119 1.6914,1.7569 L0.9854,3.6229 C0.9194,3.8909 0.6484,4.0569 0.3804,3.9879 C0.1124,3.9219 -0.0516,3.6509 0.0144,3.3829 L0.7204,1.5179 C0.9404,0.6249 1.7374,-0.0001 2.6574,-0.0001 L9.3424,-0.0001 C10.2634,-0.0001 11.0604,0.6249 11.2794,1.5179 L11.9854,3.3829 C12.0514,3.6509 11.8874,3.9219 11.6194,3.9879 C11.5794,3.9989 11.5394,4.0029 11.4994,4.0029" id="Fill-1"></path>
                    </g>
                </g>
            </g>
        </g>
    </g>
</svg>