<?xml version="1.0" encoding="UTF-8"?>
<svg width="14px" height="14px" viewBox="0 0 14 14" version="1.1" xmlns="http://www.w3.org/2000/svg" xmlns:xlink="http://www.w3.org/1999/xlink">
    <!-- Generator: Sketch 40.3 (33839) - http://www.bohemiancoding.com/sketch -->
    <title>提示icon</title>
    <desc>Created with Sketch.</desc>
    <defs></defs>
    <g id="GSP设计页面" stroke="none" stroke-width="1" fill="none" fill-rule="evenodd">
        <g id="2-1-5-3-首营-&gt;-产品资质-&gt;-产品资质审批-&gt;-审批通过" transform="translate(-806.000000, -194.000000)" fill="#1FB5AC">
            <g id="正文" transform="translate(214.000000, 125.000000)">
                <g id="表格" transform="translate(0.000000, 39.000000)">
                    <path d="M601.729165,36.1712985 C601.526479,36.4899207 601.096704,36.9227767 600.437002,37.471569 C600.095841,37.7547617 599.883427,37.9832292 599.801379,38.1570526 C599.719332,38.3291734 599.68066,38.6382289 599.688686,39.0839757 L598.217916,39.0839757 C598.214673,38.8731823 598.211511,38.7443552 598.211511,38.6976564 C598.211511,38.2214256 598.290316,37.830404 598.448005,37.5230512 C598.605695,37.2156172 598.921074,36.869673 599.392603,36.4866777 C599.864131,36.102061 600.147324,35.8510548 600.2391,35.7320377 C600.380656,35.543783 600.453055,35.3361516 600.453055,35.1107649 C600.453055,34.7970072 600.326012,34.5283268 600.074924,34.3031023 C599.823918,34.079337 599.482757,33.9667248 599.056306,33.9667248 C598.644367,33.9667248 598.299964,34.0842015 598.023176,34.3175335 C597.746388,34.5507844 597.508272,35.0657687 597.451926,35.3843909 C597.398822,35.6853389 595.948969,35.8124634 595.966644,35.2026222 C595.984318,34.5926998 596.301319,33.9313764 596.845246,33.4518216 C597.389174,32.9722668 598.103683,32.7324489 598.987069,32.7324489 C599.917235,32.7324489 600.655822,32.9755098 601.206155,33.4613883 C601.756487,33.947348 602.030113,34.512193 602.030113,35.1574638 C602.031654,35.5146774 601.930311,35.8526763 601.729165,36.1712985 M598.954963,41.8983907 C598.385254,41.8983907 597.921752,41.4446175 597.921752,40.8861774 C597.921752,40.3278183 598.383632,39.8739641 598.954963,39.8739641 C599.524511,39.8739641 599.988013,40.3278183 599.988013,40.8861774 C599.988013,41.4446175 599.526213,41.8983907 598.954963,41.8983907 M598.999959,30 C595.134659,30 592,33.1347398 592,37.0000405 C592,40.8653413 595.134659,44 598.999959,44 C602.86526,44 606,40.8653413 606,37.0000405 C606,33.1347398 602.86526,30 598.999959,30" id="提示icon"></path>
                </g>
            </g>
        </g>
    </g>
</svg>