<?xml version="1.0" encoding="UTF-8"?>
<svg width="12px" height="12px" viewBox="0 0 12 12" version="1.1" xmlns="http://www.w3.org/2000/svg" xmlns:xlink="http://www.w3.org/1999/xlink">
    <!-- Generator: Sketch 42 (36781) - http://www.bohemiancoding.com/sketch -->
    <title>搜索icon</title>
    <desc>Created with Sketch.</desc>
    <defs></defs>
    <g id="Symbols" stroke="none" stroke-width="1" fill="none" fill-rule="evenodd">
        <g id="sidebar" transform="translate(-26.000000, -17.000000)" fill="#969696">
            <g id="search">
                <g transform="translate(12.000000, 10.000000)">
                    <g id="Group-2" transform="translate(14.000000, 6.000000)">
                        <g id="搜索icon" transform="translate(0.000000, 1.000000)">
                            <path d="M5.5,0 C2.462,0 0,2.462 0,5.5 C0,8.538 2.462,11 5.5,11 C8.538,11 11,8.538 11,5.5 C11,2.462 8.538,0 5.5,0 M5.5,1 C7.981,1 10,3.019 10,5.5 C10,7.981 7.981,10 5.5,10 C3.019,10 1,7.981 1,5.5 C1,3.019 3.019,1 5.5,1" id="Fill-1"></path>
                            <path d="M9.4954,10.2336 L10.2344,9.4946 L11.8444,11.1046 C12.0494,11.3106 12.0534,11.6416 11.8474,11.8466 C11.6434,12.0516 11.3144,12.0526 11.1054,11.8436 L9.4954,10.2336 Z" id="Fill-4"></path>
                        </g>
                    </g>
                </g>
            </g>
        </g>
    </g>
</svg>