<?xml version="1.0" encoding="UTF-8"?>
<svg width="16px" height="16px" viewBox="0 0 16 16" version="1.1" xmlns="http://www.w3.org/2000/svg" xmlns:xlink="http://www.w3.org/1999/xlink">
    <!-- Generator: Sketch 40.3 (33839) - http://www.bohemiancoding.com/sketch -->
    <title>shezhi</title>
    <desc>Created with Sketch.</desc>
    <defs></defs>
    <g id="Page-1" stroke="none" stroke-width="1" fill="none" fill-rule="evenodd">
        <g id="2-1-1-1-首营-产品资质-产品资质查询" transform="translate(-1320.000000, -17.000000)" fill="#B1B1B1">
            <g id="header">
                <path d="M1329.73631,29.79936 L1320.79356,29.79936 C1320.36478,29.79936 1320,30.1577421 1320,30.59932 C1320,31.0440978 1320.35518,31.39928 1320.79356,31.39928 L1329.73631,31.39928 C1330.0659,32.3312334 1330.95465,32.9992 1331.9994,32.9992 C1333.04415,32.9992 1333.9329,32.3312334 1334.26249,31.39928 L1335.20564,31.39928 C1335.63442,31.39928 1335.9992,31.040898 1335.9992,30.59932 C1335.9992,30.1545423 1335.64402,29.79936 1335.20564,29.79936 L1334.26249,29.79936 C1333.9329,28.8674066 1333.04415,28.19944 1331.9994,28.19944 C1330.95465,28.19944 1330.0659,28.8674066 1329.73631,29.79936 L1329.73631,29.79936 Z M1327.06365,25.79956 L1335.20644,25.79956 C1335.63522,25.79956 1336,25.4411779 1336,24.9996 C1336,24.5548223 1335.64482,24.19964 1335.20644,24.19964 L1327.06365,24.19964 C1326.73406,23.2676866 1325.84531,22.59972 1324.80056,22.59972 C1323.75581,22.59972 1322.86706,23.2676866 1322.53747,24.19964 L1320.79436,24.19964 C1320.36558,24.19964 1320.0008,24.5580221 1320.0008,24.9996 C1320.0008,25.4443778 1320.35598,25.79956 1320.79436,25.79956 L1322.53747,25.79956 C1322.86706,26.7315134 1323.75581,27.39948 1324.80056,27.39948 C1325.84531,27.39948 1326.73406,26.7315134 1327.06365,25.79956 L1327.06365,25.79956 Z M1329.73631,18.59992 L1320.79356,18.59992 C1320.36478,18.59992 1320,18.9583021 1320,19.39988 C1320,19.8446578 1320.35518,20.19984 1320.79356,20.19984 L1329.73631,20.19984 C1330.0659,21.1317934 1330.95465,21.79976 1331.9994,21.79976 C1333.04415,21.79976 1333.9329,21.1317934 1334.26249,20.19984 L1335.20564,20.19984 C1335.63442,20.19984 1335.9992,19.8414579 1335.9992,19.39988 C1335.9992,18.9551022 1335.64402,18.59992 1335.20564,18.59992 L1334.26249,18.59992 C1333.9329,17.6679666 1333.04415,17 1331.9994,17 C1330.95465,17 1330.0659,17.6679666 1329.73631,18.59992 L1329.73631,18.59992 Z M1331.9994,20.19984 C1332.44098,20.19984 1332.79936,19.8414579 1332.79936,19.39988 C1332.79936,18.9583021 1332.44098,18.59992 1331.9994,18.59992 C1331.55782,18.59992 1331.19944,18.9583021 1331.19944,19.39988 C1331.19944,19.8414579 1331.55782,20.19984 1331.9994,20.19984 L1331.9994,20.19984 Z M1324.79976,24.19964 C1324.35818,24.19964 1323.9998,24.5580221 1323.9998,24.9996 C1323.9998,25.4411779 1324.35818,25.79956 1324.79976,25.79956 C1325.24134,25.79956 1325.59972,25.4411779 1325.59972,24.9996 C1325.59972,24.5580221 1325.24134,24.19964 1324.79976,24.19964 L1324.79976,24.19964 Z M1331.9994,31.39928 C1332.44098,31.39928 1332.79936,31.040898 1332.79936,30.59932 C1332.79936,30.1577421 1332.44098,29.79936 1331.9994,29.79936 C1331.55782,29.79936 1331.19944,30.1577421 1331.19944,30.59932 C1331.19944,31.040898 1331.55782,31.39928 1331.9994,31.39928 L1331.9994,31.39928 Z" id="shezhi"></path>
            </g>
        </g>
    </g>
</svg>