<?xml version="1.0" encoding="UTF-8"?>
<svg width="16px" height="16px" viewBox="0 0 16 16" version="1.1" xmlns="http://www.w3.org/2000/svg" xmlns:xlink="http://www.w3.org/1999/xlink">
    <!-- Generator: Sketch 40.3 (33839) - http://www.bohemiancoding.com/sketch -->
    <title>xitonggonggao</title>
    <desc>Created with Sketch.</desc>
    <defs></defs>
    <g id="Page-1" stroke="none" stroke-width="1" fill="none" fill-rule="evenodd">
        <g id="2-1-1-1-首营-产品资质-产品资质查询" transform="translate(-1116.000000, -16.000000)">
            <g id="header">
                <g id="xitonggonggao" transform="translate(1116.000000, 16.000000)">
                    <path d="M0.000699965002,4.32711111 L0.000699965002,13.6721111 C0.000699965002,14.9476667 0.939353032,16 2.09639518,16 L11.9043048,16 C13.059947,16 14,14.9577778 14,13.6721111 L14,4.32711111 C14,4.09066667 13.9678016,3.86277778 13.9083046,3.64733333 L14,3.55555556 L13.839008,3.43655556 C13.5233238,2.59733333 12.7757612,2 11.9036048,2 L2.09569522,2 C1.22353882,2 0.473876306,2.59422222 0.158892055,3.43811111 L0,3.55555556 L0.0909954502,3.64655556 C0.0314984251,3.862 0,4.09066667 0,4.32711111 L0.000699965002,4.32711111 Z M12.60007,13.6612222 C12.60007,14.0936667 12.2885856,14.4444444 11.899405,14.4444444 L2.10129494,14.4444444 C1.71421429,14.4444444 1.40062997,14.0944444 1.40062997,13.6612222 L1.40062997,4.33877778 C1.40062997,3.90633333 1.71211439,3.55555556 2.10129494,3.55555556 L11.899405,3.55555556 C12.2864857,3.55555556 12.60007,3.90555556 12.60007,4.33877778 L12.60007,13.6612222 L12.60007,13.6612222 Z M2.80055997,6.35555556 L6.48027599,10.0352222 C6.7679616,10.323 7.23343833,10.323 7.52112394,10.0352222 L11.20084,6.35555556 L11.20084,5.892 C11.20084,5.46033333 10.8851557,5.11111111 10.5029749,5.11111111 L10.2677866,5.11111111 L7.00104995,8.22222222 L3.73431328,5.11111111 L3.49912504,5.11111111 C3.11344433,5.11111111 2.80125994,5.46422222 2.80125994,5.892 L2.80125994,6.35555556 L2.80055997,6.35555556 Z" id="xitonggonggao-1" fill="#B1B1B1"></path>
                    <circle id="Oval-Copy" fill="#F5A93F" cx="13" cy="3" r="3"></circle>
                </g>
            </g>
        </g>
    </g>
</svg>