<?xml version="1.0" encoding="UTF-8"?>
<svg width="16px" height="16px" viewBox="0 0 16 16" version="1.1" xmlns="http://www.w3.org/2000/svg" xmlns:xlink="http://www.w3.org/1999/xlink">
    <!-- Generator: Sketch 40.3 (33839) - http://www.bohemiancoding.com/sketch -->
    <title>daibangonggao</title>
    <desc>Created with Sketch.</desc>
    <defs></defs>
    <g id="Page-1" stroke="none" stroke-width="1" fill="none" fill-rule="evenodd">
        <g id="2-1-1-1-首营-产品资质-产品资质查询" transform="translate(-1150.000000, -16.000000)">
            <g id="header">
                <g id="daibangonggao" transform="translate(1150.000000, 16.000000)">
                    <path d="M10.499475,2.70066497 L11.8987051,2.69926504 C13.0585471,2.69716514 13.9993,3.63231838 13.9993,4.79076046 L13.9993,13.9050047 C13.9993,15.0620469 13.059247,16 11.9036048,16 L2.09569522,16 C0.937953102,16 0,15.0529474 0,13.9050047 L0,4.79496025 C0,3.63861807 0.937253137,2.70066497 2.10059497,2.70066497 L3.49562522,2.70066497 L3.49982501,4.10059497 L4.89975501,4.10059497 L4.89975501,2.70696465 C4.89975501,2.31708415 5.21053947,2.00069997 5.59972001,2.00069997 C5.98610069,2.00069997 6.29968502,2.31078446 6.29968502,2.70696465 L6.29968502,4.09359532 C6.29968502,4.09569522 7.69961502,4.09989501 7.69961502,4.09989501 L7.69961502,2.70626469 C7.69961502,2.31638418 8.01039948,2 8.39958002,2 C8.7859607,2 9.09954502,2.3100845 9.09954502,2.70626469 L9.09954502,4.09289536 C9.09954502,4.09499525 11.899405,4.09849508 11.899405,4.09849508 C12.2857857,4.09919504 12.59937,4.40927954 12.59937,4.79846008 L12.59937,6.19909005 L1.39993,6.19909005 L1.39993,4.79846008 C1.39993,4.4120794 1.71071446,4.09919504 2.09989501,4.09919504 L4.89975501,4.09919504 C4.90325484,4.49257537 5.21543923,4.79916004 5.59972001,4.79916004 C5.98680066,4.79916004 6.29618519,4.48627569 6.29968502,4.09919504 L7.69961502,4.09919504 C7.70311484,4.49257537 8.01529924,4.79916004 8.39958002,4.79916004 C8.78666067,4.79916004 9.0960452,4.48627569 9.09954502,4.09919504 L10.499475,4.09919504 L10.499475,2.69926504 L10.499475,2.70066497 Z M11.8987051,14.60007 L2.10059497,14.60007 C1.71351432,14.5755712 1.39993,14.2577871 1.39993,13.8812059 L1.39993,7.60041998 L12.59937,7.60041998 L12.59937,13.8812059 C12.59937,14.2647868 12.2878856,14.5755712 11.8987051,14.60007 L11.8987051,14.60007 Z M3.49982501,9.00034998 L4.89975501,9.00034998 L4.89975501,10.40028 L3.49982501,10.40028 L3.49982501,9.00034998 L3.49982501,9.00034998 Z M3.49982501,11.80021 L4.89975501,11.80021 L4.89975501,13.20014 L3.49982501,13.20014 L3.49982501,11.80021 L3.49982501,11.80021 Z M6.29968502,11.80021 L7.69961502,11.80021 L7.69961502,13.20014 L6.29968502,13.20014 L6.29968502,11.80021 L6.29968502,11.80021 Z M9.09954502,11.80021 L10.499475,11.80021 L10.499475,13.20014 L9.09954502,13.20014 L9.09954502,11.80021 L9.09954502,11.80021 Z M9.09954502,9.00034998 L10.499475,9.00034998 L10.499475,10.40028 L9.09954502,10.40028 L9.09954502,9.00034998 L9.09954502,9.00034998 Z M6.29968502,9.00034998 L7.69961502,9.00034998 L7.69961502,10.40028 L6.29968502,10.40028 L6.29968502,9.00034998 L6.29968502,9.00034998 Z" id="daibangonggao-1" fill="#B1B1B1"></path>
                    <circle id="Oval-Copy-2" fill="#1FB5AC" cx="13" cy="3" r="3"></circle>
                </g>
            </g>
        </g>
    </g>
</svg>